<?xml version="1.0" encoding="UTF-8"?>
<svg width="16px" height="16px" viewBox="0 0 16 16" version="1.1" xmlns="http://www.w3.org/2000/svg" xmlns:xlink="http://www.w3.org/1999/xlink">
    <!-- Generator: Sketch 3.8.3 (29802) - http://www.bohemiancoding.com/sketch -->
    <title>link</title>
    <desc>Created with Sketch.</desc>
    <defs></defs>
    <g id="Page-1" stroke="none" stroke-width="1" fill="none" fill-rule="evenodd">
        <g id="link" fill="#FFFFFF">
            <path d="M9.47733333,0.227657143 L11.7138551,2.43222857 C9.5795942,4.53577143 5.05066667,9.00091429 4.82968116,9.21782857 C4.26365217,9.776 4.26365217,10.6804571 4.82968116,11.2374857 C5.39594203,11.7954286 6.31350725,11.7954286 6.8786087,11.2374857 C7.09866667,11.0196571 11.6278261,6.55542857 13.7627826,4.45188571 L15.9990725,6.65622857 L15.9990725,0.227657143 L9.47733333,0.227657143 Z" id="Fill-1"></path>
            <path d="M13.826087,8.8 C13.4256232,8.8 13.1014493,9.11954286 13.1014493,9.51428571 L13.1014493,14.5142857 L1.50724638,14.5142857 L1.50724638,3.08571429 L6.57971014,3.08571429 C6.98017391,3.08571429 7.30434783,2.76617143 7.30434783,2.37142857 C7.30434783,1.97668571 6.98017391,1.65714286 6.57971014,1.65714286 L1.50724638,1.65714286 C0.707478261,1.65714286 0.0579710145,2.29645714 0.0579710145,3.08571429 L0.0579710145,14.5142857 C0.0579710145,15.3035429 0.707478261,15.9428571 1.50724638,15.9428571 L13.1014493,15.9428571 C13.9012174,15.9428571 14.5507246,15.3035429 14.5507246,14.5142857 L14.5507246,9.51428571 C14.5507246,9.11954286 14.2265507,8.8 13.826087,8.8 L13.826087,8.8 Z" id="Fill-2"></path>
        </g>
    </g>
</svg>