<?xml version="1.0" encoding="UTF-8"?>
<svg width="130px" height="28px" viewBox="0 0 130 28" version="1.1" xmlns="http://www.w3.org/2000/svg" xmlns:xlink="http://www.w3.org/1999/xlink">
    <!-- Generator: Sketch 3.8.3 (29802) - http://www.bohemiancoding.com/sketch -->
    <title>Logo</title>
    <desc>Created with Sketch.</desc>
    <defs>
        <polygon id="path-1" points="65.0000322 27.8925057 130 27.8925057 130 0 65.0000322 0 6.43564363e-05 0 6.43564363e-05 27.8925057"></polygon>
    </defs>
    <g id="Page-1" stroke="none" stroke-width="1" fill="none" fill-rule="evenodd">
        <g id="0-1-EXPEDITION-DASHBOARD-Copy-17" transform="translate(-20.000000, -113.000000)">
            <g id="Logo" transform="translate(20.000000, 113.000000)">
                <mask id="mask-2" fill="white">
                    <use xlink:href="#path-1"></use>
                </mask>
                <g id="Clip-2"></g>
                <path d="M68.8859059,15.3275862 C67.6489752,15.3275862 66.6466238,16.3487816 66.6466238,17.6081379 C66.6466238,18.8678161 67.6489752,19.8890115 68.8859059,19.8890115 C70.1228366,19.8890115 71.1251881,18.8678161 71.1251881,17.6081379 C71.1251881,16.3487816 70.1228366,15.3275862 68.8859059,15.3275862 L68.8859059,15.3275862 Z M130.000064,13.161931 L130.000064,7.36882759 L125.173332,7.36882759 L125.173332,2.2194023 L118.094124,2.2194023 L118.094124,7.36882759 L115.841649,7.36882759 L115.841649,13.161931 L118.094124,13.161931 L118.094124,21.1612414 C118.094124,25.9585747 120.737564,27.8184828 124.976401,27.8184828 C126.947317,27.8184828 128.712936,27.372092 130.000064,26.6653333 L130.000064,21.1242299 C129.034718,21.5329655 128.144025,21.7933333 127.214718,21.7933333 C125.913109,21.7933333 125.173332,21.1982529 125.173332,19.7853793 L125.173332,13.161931 L130.000064,13.161931 Z M105.544619,5.4377931 L112.945609,5.4377931 L112.945609,0.288367816 L105.544619,0.288367816 L105.544619,5.4377931 Z M105.544619,27.3228506 L112.623827,27.3228506 L112.623827,7.36882759 L105.544619,7.36882759 L105.544619,27.3228506 Z M104.127812,7.36882759 L96.1334554,7.36882759 L90.4208564,14.0205977 L90.4208564,0.288367816 L83.3416485,0.288367816 L83.3416485,27.3228506 L90.4208564,27.3228506 L90.4208564,22.6857931 L92.3660297,20.5230345 L96.5424406,27.3228506 L104.313802,27.3228506 L97.1374158,15.3562299 L104.127812,7.36882759 Z M59.5941238,11.0957241 C58.6001386,12.7641379 57.9208564,14.879908 57.9208564,17.3677241 L57.9208564,17.442069 C57.9208564,23.8762759 62.0988762,27.8554943 66.8583564,27.8554943 C69.8702376,27.8554943 71.4357079,26.4049655 73.0446188,24.7314023 L73.0446188,27.3228506 L80.1827129,27.3228506 L66.039099,20.4052414 C66.1462525,20.3321839 62.3421436,14.9964138 59.5941238,11.0957241 L59.5941238,11.0957241 Z M73.0446188,9.74367816 C71.7574901,8.21912644 69.9577624,6.84326437 66.9085545,6.84326437 C64.6908317,6.84326437 62.6375396,7.70772414 61.0566238,9.29278161 L71.4952376,14.6948506 L80.1238267,27.4091034 L80.1238267,0.288367816 L73.0446188,0.288367816 L73.0446188,9.74367816 Z M56.8734554,7.12294253 C56.8734554,7.12294253 58.1126386,8.8685977 59.6816485,11.0957241 C60.0838762,10.4195402 60.5527129,9.81673563 61.0749653,9.29278161 L56.8734554,7.12294253 Z M48.9109554,27.3228506 L55.9901634,27.3228506 L55.9901634,0.288367816 L48.9109554,0.288367816 L48.9109554,27.3228506 Z M33.2961535,15.7366437 C33.6681337,13.4837701 34.9320941,12.0914943 36.7913515,12.0914943 C38.7249406,12.0914943 40.0262277,13.4837701 40.2865495,15.7366437 L33.2961535,15.7366437 Z M36.6455842,6.84326437 C30.6961535,6.84326437 26.386203,11.491908 26.386203,17.3677241 L26.386203,17.442069 C26.386203,23.689931 30.9564752,27.8925057 37.2775644,27.8925057 C41.2937277,27.8925057 44.1366733,26.2562759 46.0702624,23.8016092 L42.1931089,20.5661609 C40.7431584,21.9793563 39.4180594,22.5992184 37.7447921,22.5992184 C35.5508812,22.5992184 33.9654604,21.5297471 33.4078119,19.2768736 L46.8679604,19.2768736 C46.9052871,18.9550345 46.8509059,18.2849655 46.8509059,17.8388966 C46.8509059,11.9254253 43.5989752,6.84326437 36.6455842,6.84326437 L36.6455842,6.84326437 Z M16.4109554,5.4377931 L23.8119455,5.4377931 L23.8119455,0.288367816 L16.4109554,0.288367816 L16.4109554,5.4377931 Z M16.7327376,27.3228506 L23.8119455,27.3228506 L23.8119455,7.36882759 L16.7327376,7.36882759 L16.7327376,27.3228506 Z M4.09152475,1.74822989 C2.90157426,2.93806897 2.2525396,4.64864368 2.2525396,6.95462069 L2.2525396,7.36882759 L6.43564363e-05,7.36882759 L6.43564363e-05,12.840092 L2.2525396,12.840092 L2.2525396,27.3228506 L9.33174752,27.3228506 L9.33174752,12.840092 L13.836698,12.840092 L13.836698,7.69066667 L9.33174752,7.69066667 L9.33174752,7.02896552 C9.33174752,5.72744828 9.96630198,5.13204598 11.2679109,5.13204598 C12.2725149,5.13204598 13.1931337,5.28105747 13.836698,5.54142529 L13.836698,0.557747126 C12.8713515,0.223034483 11.4368465,0 9.28026238,0 C6.90036139,0 5.31880198,0.520735632 4.09152475,1.74822989 L4.09152475,1.74822989 Z" id="Fill-1" fill="#FFFFFF" mask="url(#mask-2)"></path>
            </g>
        </g>
    </g>
</svg>