<?xml version="1.0" encoding="utf-8"?>
<!-- Generator: Adobe Illustrator 21.0.0, SVG Export Plug-In . SVG Version: 6.00 Build 0)  -->
<svg version="1.1" id="Layer_1" xmlns="http://www.w3.org/2000/svg" xmlns:xlink="http://www.w3.org/1999/xlink" x="0px" y="0px"
	 viewBox="0 0 405.8 88.8" style="enable-background:new 0 0 405.8 88.8;" xml:space="preserve">
<style type="text/css">
	.st0{fill:#D0462C;}
</style>
<path class="st0" d="M13.7,6.7C10,10.4,8,15.7,8,22.9v1.3H1v17h7v45h22v-45h14v-16H30v-2.1c0-4,2-5.9,6-5.9c3.1,0,6,0.5,8,1.3V3
	c-3-1-7.5-1.7-14.2-1.7C22.4,1.3,17.5,2.9,13.7,6.7z M53,86.2h22v-62H53V86.2z M52,18.2h23v-16H52V18.2z M114.9,22.5
	C96.4,22.5,83,37,83,55.2v0.2c0,19.4,14.2,32.5,33.8,32.5c12.5,0,21.3-5.1,27.3-12.7l-12-10.1c-4.5,4.4-8.6,6.3-13.8,6.3
	c-6.8,0-11.7-3.3-13.5-10.3h41.8c0.1-1-0.1-3.1-0.1-4.5C146.6,38.3,136.5,22.5,114.9,22.5z M104.5,50.2c1.2-7,5.1-11.3,10.9-11.3
	c6,0,10.1,4.3,10.9,11.3H104.5z M153,86.2h22v-84h-22V86.2z M177.7,23.4c0,0,3.9,5.4,8.7,12.3c1.3-2.1,2.7-4,4.3-5.6L177.7,23.4z
	 M228,31.5c-4-4.7-9.6-9-19.1-9c-6.9,0-13.3,2.7-18.2,7.6l32.4,16.8L250,86.4V2.2h-22V31.5z M186.2,35.7c-3.1,5.2-5.2,11.8-5.2,19.5
	v0.2c0,20,13,32.4,27.8,32.4c9.4,0,14.2-4.5,19.2-9.7v8.1h22.2l-44-21.5C206.6,64.4,194.7,47.9,186.2,35.7z M324.6,24.2h-24.8
	L282,44.8V2.2h-22v84h22V71.7l6-6.7l13,21.1h24.2L302.9,49L324.6,24.2z M329,86.2h22v-62h-22V86.2z M329,18.2h23v-16h-23V18.2z
	 M405,42.2v-18h-15v-16h-22v16h-7v18h7V67c0,14.9,8.2,20.7,21.4,20.7c6.1,0,11.6-1.4,15.6-3.6V66.9c-3,1.3-5.8,2.1-8.7,2.1
	c-4,0-6.3-1.8-6.3-6.2V42.2H405z M215.1,48.9c-3.8,0-7,3.2-7,7.1c0,3.9,3.1,7.1,7,7.1s7-3.2,7-7.1C222,52.1,218.9,48.9,215.1,48.9z"
	/>
</svg>
