<?xml version="1.0" encoding="UTF-8"?>
<svg width="28px" height="28px" viewBox="0 0 28 28" version="1.1" xmlns="http://www.w3.org/2000/svg" xmlns:xlink="http://www.w3.org/1999/xlink">
    <!-- Generator: Sketch 42 (36781) - http://www.bohemiancoding.com/sketch -->
    <title>icon-sensor-white</title>
    <desc>Created with Sketch.</desc>
    <defs></defs>
    <g id="Page-1" stroke="none" stroke-width="1" fill="none" fill-rule="evenodd">
        <g id="icon-sensor-white" fill="#FFFFFF">
            <g id="Page-1" transform="translate(1.000000, 4.000000)">
                <path d="M16.0808116,10.0538182 C16.0808116,11.6901818 14.6956522,13.0538182 13,13.0538182 C11.3043478,13.0538182 9.91918841,11.6901818 9.91918841,10.0538182 C9.91918841,8.41745455 11.3043478,7.05381818 13,7.05381818 C14.6956522,7.05381818 16.0808116,8.36363636 16.0808116,10.0538182 Z" id="Fill-1"></path>
                <path d="M4.01228986,10.0538182 C4.01228986,7.16327273 5.48147826,4.62654545 7.77173913,3.07236364 L7.37571014,2.58109091 C4.94565217,4.24436364 3.39130435,6.99854545 3.39130435,10.108 C3.39130435,13.1618182 4.91776812,15.8621818 7.29205797,17.5538182 L7.68771014,17.0625455 C5.45510145,15.4007273 4.01228986,12.9174545 4.01228986,10.0538182 Z" id="Fill-2" stroke="#FFFFFF"></path>
                <path d="M22.6086957,10.0538182 C22.6086957,7 21.0543478,4.24436364 18.6242899,2.58109091 L18.2561449,3.07236364 C20.4891304,4.62654545 21.9862029,7.19018182 21.9862029,10.0538182 C21.9862029,12.8905455 20.5448986,15.372 18.368058,16.9814545 L18.764087,17.4730909 C21.0822319,15.7810909 22.6086957,13.0825455 22.6086957,10.0538182 Z" id="Fill-3" stroke="#FFFFFF"></path>
                <path d="M25.0964058,10.0538182 C25.0964058,13.8450909 23.173913,17.2541818 20.235913,19.3807273 L20.631942,19.872 C23.6833623,17.6094545 25.7173913,14.0370909 25.7173913,10.0269091 C25.7173913,5.936 23.6257101,2.33672727 20.4612464,0.126545455 L20.0652174,0.590909091 C23.146029,2.71890909 25.0964058,6.15490909 25.0964058,10.0538182 Z" id="Fill-4" stroke="#FFFFFF"></path>
                <path d="M0.903594203,10.0538182 C0.903594203,6.18181818 2.91011594,2.71745455 5.9053913,0.590909091 L5.50936232,0.0992727273 C2.3464058,2.36363636 0.282608696,5.96290909 0.282608696,10.0538182 C0.282608696,14.0909091 2.31663768,17.6632727 5.45510145,19.9007273 L5.85075362,19.4090909 C2.82608696,17.2810909 0.903594203,13.9007273 0.903594203,10.0538182 Z" id="Fill-5" stroke="#FFFFFF"></path>
                <path d="M7.09310145,10.0538182 C7.09310145,8.14472727 8.08223188,6.45454545 9.60869565,5.44472727 L9.21266667,4.95309091 C7.54489855,6.09818182 6.44272464,7.95309091 6.44272464,10.0254545 C6.44272464,12.0709091 7.51701449,13.9261818 9.07136232,15.0709091 L9.4673913,14.5796364 C8.02646377,13.5185455 7.09310145,11.8821818 7.09310145,10.0538182 Z" id="Fill-6" stroke="#FFFFFF"></path>
                <path d="M19.5278841,10.0538182 C19.5278841,7.98145455 18.4253333,6.12654545 16.8152174,4.98145455 L16.4191884,5.47309091 C17.8883768,6.50981818 18.8775072,8.17345455 18.8775072,10.0552727 C18.8775072,11.9105455 17.9441449,13.5469091 16.5604928,14.5552727 L16.9286377,15.0469091 C18.4829855,13.8450909 19.5278841,12.0992727 19.5278841,10.0538182 Z" id="Fill-7" stroke="#FFFFFF"></path>
            </g>
        </g>
    </g>
</svg>