<?xml version="1.0" encoding="utf-8"?>
<!-- Generator: Adobe Illustrator 21.0.0, SVG Export Plug-In . SVG Version: 6.00 Build 0)  -->
<svg version="1.1"
	 id="Layer_1" inkscape:version="0.91 r13725" sodipodi:docname="ng-logo-full-black.svg" xmlns:cc="http://creativecommons.org/ns#" xmlns:dc="http://purl.org/dc/elements/1.1/" xmlns:inkscape="http://www.inkscape.org/namespaces/inkscape" xmlns:rdf="http://www.w3.org/1999/02/22-rdf-syntax-ns#" xmlns:sodipodi="http://sodipodi.sourceforge.net/DTD/sodipodi-0.dtd" xmlns:svg="http://www.w3.org/2000/svg"
	 xmlns="http://www.w3.org/2000/svg" xmlns:xlink="http://www.w3.org/1999/xlink" x="0px" y="0px" viewBox="0 0 3000 577.4"
	 style="enable-background:new 0 0 3000 577.4;" xml:space="preserve">
<style type="text/css">
	.st0{fill:#F6DB00;}
</style>
<sodipodi:namedview  bordercolor="#666666" borderopacity="1" fit-margin-bottom="20" fit-margin-left="20" fit-margin-right="20" fit-margin-top="20" gridtolerance="10" guidetolerance="10" id="namedview55" inkscape:current-layer="Layer_1" inkscape:cx="1456.4161" inkscape:cy="-219.33708" inkscape:pageopacity="0" inkscape:pageshadow="2" inkscape:window-height="721" inkscape:window-maximized="1" inkscape:window-width="1280" inkscape:window-x="-4" inkscape:window-y="-4" inkscape:zoom="0.18633333" objecttolerance="10" pagecolor="#ffffff" showgrid="false">
	</sodipodi:namedview>
<g id="g3" transform="matrix(2.989899,0,0,2.989899,4.080808,-1705.6902)">
	<g id="g5">
		
			<image style="overflow:visible;opacity:0.4;" width="394" height="556" xlink:href="D6F60A7054906D91.png"  transform="matrix(0.3345 0 0 0.3345 3.3176 574.9775)">
		</image>
		<g>
			<path id="path11_1_" inkscape:connector-curvature="0" class="st0" d="M5.3,756.9V577.2h125.5v179.8H5.3L5.3,756.9z M112.4,738.5
				V595.2H23.2v143.4H112.4L112.4,738.5z"/>
		</g>
	</g>
	<g id="g13">
		<g id="g15">
			<path id="path17" inkscape:connector-curvature="0" d="M213.9,698.8h-7.9c-10-14.4-20.1-28.4-30.1-44.6l0,0v44.6h-8.8v-62.5h7.9
				c10,14.4,20.1,28.4,30.1,44.6l0,0v-44.6h8.8V698.8z"/>
			<path id="path19" inkscape:connector-curvature="0" d="M234.1,673.8c2.6-8.2,4.7-15.8,7.4-25.4l0,0c2.6,9.6,4.8,17,7,25.4H234.1z
				 M238.4,636.2l-21.4,62.5h9.1l5.2-17h18.7l4.8,17h11.8l-19.6-62.5C247.2,636.2,238.4,636.2,238.4,636.2z"/>
			<path id="path21" inkscape:connector-curvature="0" d="M277.3,698.8v-54.2h-16.6v-8.2h43.2v8.2h-16.6v54.2H277.3z"/>
			<path id="path23" inkscape:connector-curvature="0" d="M307.4,698.8v-62.5h10.5v62.5H307.4z"/>
			<path id="path25" inkscape:connector-curvature="0" d="M351.2,690.9c-10.9,0-14.9-12.2-14.9-24c0-11.4,4.4-22.2,14.9-22.2
				s14.9,10.9,14.9,22.2C366.6,678.7,362.6,690.9,351.2,690.9z M351.2,699.7c16.1,0,26.6-14.4,26.6-33.2c0-17.5-11.4-31.5-26.6-31.5
				s-26.6,14-26.6,31.5C324.9,685.2,335.1,699.7,351.2,699.7z"/>
			<path id="path27" inkscape:connector-curvature="0" d="M430.8,698.8h-7.9c-10-14.4-20.1-28.4-30.1-44.6l0,0v44.6h-8.8v-62.5h7.9
				c10,14.4,20.1,28.4,30.1,44.6l0,0v-44.6h8.8V698.8z"/>
			<path id="path29" inkscape:connector-curvature="0" d="M451.3,673.8c2.6-8.2,4.8-15.8,7.4-25.4l0,0c2.6,9.6,4.8,17,7,25.4
				C465.8,673.8,451.3,673.8,451.3,673.8z M455.3,636.2l-21.4,62.5h9.1l5.2-17h18.8l4.8,17h11.8l-19.2-62.5H455.3z"/>
			<path id="path31" inkscape:connector-curvature="0" d="M487.2,636.2h10.5v54.2h21v8.2h-31.9v-62.5H487.2z"/>
		</g>
		<g id="g33">
			<path id="path35" inkscape:connector-curvature="0" d="M586.4,669.9v25.8c-5.6,2.1-11.8,3.9-17.9,3.9
				c-18.4,0-30.1-14.4-30.1-32.8c0-17,11.8-31.9,30.1-31.9c5.6,0,11.8,2.1,15.2,4.8l-3.5,7.4c-3-1.8-7.4-3.5-11.4-3.5
				c-11.4,0-19.2,9.1-19.2,23.1c0,14.9,8.8,23.6,17.9,23.6c3,0,5.2-0.4,7.4-1.2v-19.2h11.5V669.9z"/>
			<path id="path37" inkscape:connector-curvature="0" d="M624.9,644.5h-17.9v17h17.5v8.2h-17.5v20.1h21v8.2h-31.9V636h28.4v8.2h0.4
				V644.5z"/>
			<path id="path39" inkscape:connector-curvature="0" d="M657.7,690.4c-10.9,0-14.9-12.2-14.9-24c0-11.4,4.4-22.2,14.9-22.2
				s14.9,10.9,14.9,22.2C673.1,678.2,669.1,690.4,657.7,690.4z M657.7,699.7c16.1,0,26.6-14.4,26.6-33.2c0-17.5-11.4-31.5-26.6-31.5
				s-26.6,14-26.6,31.5C631.4,684.8,641.6,699.7,657.7,699.7z"/>
			<path id="path41" inkscape:connector-curvature="0" d="M735.6,669.9v25.8c-5.6,2.1-11.8,3.9-17.9,3.9
				c-18.4,0-30.1-14.4-30.1-32.8c0-17,11.8-31.9,30.1-31.9c5.6,0,11.8,2.1,15.2,4.8l-3.5,7.4c-3-1.8-7.4-3.5-11.4-3.5
				c-11.4,0-19.2,9.1-19.2,23.1c0,14.9,8.8,23.6,17.9,23.6c3,0,5.2-0.4,7.4-1.2v-19.2h11.5V669.9z"/>
			<path id="path43" inkscape:connector-curvature="0" d="M756.1,644.5h4.8c6.1,0,10,3.5,10,10c0,8.2-5.2,12.2-10,12.2
				c-0.9,0-3.5,0-4.4,0.4v-22.6H756.1z M783.2,698.3l-12.6-25.8c7-3.5,10.9-10.9,10.9-18.4c0-12.2-7.4-17.9-19.2-17.9h-16.6v62.5
				h10.5v-23.6h4.8l0,0l10,23.6h12.2v-0.5H783.2z"/>
			<path id="path45" inkscape:connector-curvature="0" d="M800.7,673.8c2.6-8.2,4.8-15.8,7.4-25.4l0,0c2.6,9.6,4.8,17,7,25.4
				C815.2,673.8,800.7,673.8,800.7,673.8z M805.1,636.2l-21.4,62.5h9.1l5.2-17h18.8l4.8,17h11.8l-19.6-62.5
				C813.8,636.2,805.1,636.2,805.1,636.2z"/>
			<path id="path47" inkscape:connector-curvature="0" d="M853.7,636.2h-16.6v62.5h10.5V675h4.8c12.6,0,20.5-10.5,20.5-21
				C873.3,641.9,865.9,636.2,853.7,636.2z M852.3,666.8c-1.2,0-3.5,0-4.4,0.4v-22.6h4.8c6.1,0,9.6,3.5,9.6,10
				C862.4,662.9,857.6,666.4,852.3,666.8z"/>
			<path id="path49" inkscape:connector-curvature="0" d="M922.7,698.3h-10.5v-30.1h-22.2v30.1h-10.5v-62.1h10.5v24h22.2v-23.6h10.5
				V698.3z"/>
			<path id="path51" inkscape:connector-curvature="0" d="M932.8,698.3v-62.1h10.5v62.5h-10.5V698.3z"/>
			<path id="path53" inkscape:connector-curvature="0" d="M991.8,647.2c-2.6-1.8-7-3.5-10.9-3.5c-10.9,0-18.8,9.1-18.8,23.1
				c0,14.9,8.8,23.6,19.2,23.6c3.9,0,7.9-1.2,10.5-3l3,7.9c-3,2.1-8.8,4.4-14,4.4c-18.4,0-30.1-14.4-30.1-32.8
				c0-17,11.4-31.9,30.1-31.9c5.6,0,10.5,2.1,14.4,4.8L991.8,647.2z"/>
		</g>
	</g>
</g>
</svg>
