<svg height="100" viewBox="0 0 100 100" width="100" xmlns="http://www.w3.org/2000/svg"><g fill="none"><circle cx="50" cy="50" fill="#1b80c9" r="50"/><path d="m71.5479581 59.7785029c0-12.6637467-10.712963-27.7577994-20.7066427-40.2689708-.2563974-.3219641-.6455457-.5095321-1.0571286-.5095321s-.8007312.187568-1.0571286.5095321c-10.1353567 12.6528485-20.7066426 27.6161224-20.7066426 40.323462-.5231152 12.5547644 9.0673298 22.1670059 21.7964659 22.1670059s22.2432935-9.6667327 21.7310766-22.2214971z" fill="#fff"/><g fill="#1b80c9" stroke="#1b80c9" transform="translate(37 49)"><path d="m0 4.914h1.89v1.428c.37354884-.54641893.89410605-.97596964 1.5015-1.239.61414424-.28949194 1.28454651-.44006357 1.9635-.441.71967609-.00919447 1.43384626.12649786 2.1.399.60451489.25433711 1.14841288.63363439 1.596 1.113.45763798.48106101.81461625 1.04865646 1.05 1.6695.4759489 1.33072315.4759489 2.7852769 0 4.116-.23560925.6176157-.59264391 1.1817304-1.05 1.659-.44798626.4763015-.99197496.8520832-1.596 1.1025-.66615374.2725021-1.38032391.4081945-2.1.399-.69766359.0054471-1.38730296-.1490034-2.016-.4515-.58711897-.2679287-1.08863048-.6931232-1.449-1.2285v7.35h-1.89zm5.166 1.512c-.46840342-.00953989-.93354457.07991033-1.365.2625-.39815183.15806961-.75663219.40183625-1.05.714-.28767196.30090883-.50939635.65852881-.651 1.05-.3080179.90552335-.3080179 1.8874766 0 2.793.14160365.3914712.36332804.7490912.651 1.05.29336781.3121637.65184817.5559304 1.05.714.43145543.1825897.89659658.2720399 1.365.2625.46829647.0082917.93318093-.0811092 1.365-.2625.39483757-.1642589.75209462-.4071937 1.05-.714.28082111-.306158.50164832-.6623309.651-1.05.3080179-.9055234.3080179-1.88747665 0-2.793-.14935168-.38766906-.37017889-.74384199-.651-1.05-.29790538-.30680627-.65516243-.54974107-1.05-.714-.43181907-.18139082-.89670353-.27079168-1.365-.2625z"/><path d="m13.104 0h2.016v6.174h7.707v-6.174h2.016v14.868h-2.016v-6.804h-7.707v6.804h-2.016z"/></g></g></svg>