<svg height="100" viewBox="0 0 100 100" width="100" xmlns="http://www.w3.org/2000/svg"><g fill="none"><circle cx="50" cy="50" fill="#7084e0" r="50"/><g fill="#fff" transform="translate(23.333333 25.666667)"><path d="m18.1484444 4.93807407v-3.45659259c0-.65422222-.6371555-1.18518518-1.4222222-1.18518518-.7850666 0-1.4222222.53096296-1.4222222 1.18518518v3.45659259c0 .65422223.6371556 1.1851852 1.4222222 1.1851852.7850667 0 1.4222222-.53037037 1.4222222-1.1851852z"/><path d="m24.9976296 4.93807407v-3.45659259c0-.65422222-.6371555-1.18518518-1.4222222-1.18518518-.7850666 0-1.4222222.53096296-1.4222222 1.18518518v3.45659259c0 .65422223.6371556 1.1851852 1.4222222 1.1851852.7850667 0 1.4222222-.53037037 1.4222222-1.1851852z"/><path d="m12.0650265 45.0352593h29.2726138c2.0388424 0 3.6970264-1.6591126 3.6970264-3.6970266v-29.2726136c0-2.0388424-1.658184-3.6970265-3.6970264-3.6970265h-29.2726138c-2.0388423 0-3.6970265 1.6591126-3.6970265 3.6970265v29.2716852c0 2.0388424 1.6581842 3.697955 3.6970265 3.697955z"/><path d="m31.8468148 4.93807407v-3.45659259c0-.65422222-.6371556-1.18518518-1.4222222-1.18518518-.7850667 0-1.4222222.53096296-1.4222222 1.18518518v3.45659259c0 .65422223.6371555 1.1851852 1.4222222 1.1851852.7850666 0 1.4222222-.53037037 1.4222222-1.1851852z"/><path d="m38.696 4.93807407v-3.45659259c0-.65422222-.6371556-1.18518518-1.4222222-1.18518518s-1.4222222.53096296-1.4222222 1.18518518v3.45659259c0 .65422223.6371556 1.1851852 1.4222222 1.1851852s1.4222222-.53037037 1.4222222-1.1851852z"/><path d="m18.1484444 51.851852v-3.4565927c0-.6542223-.6371555-1.1851853-1.4222222-1.1851853-.7850666 0-1.4222222.530963-1.4222222 1.1851853v3.4565927c0 .654222.6371556 1.185185 1.4222222 1.185185.7850667 0 1.4222222-.530963 1.4222222-1.185185z"/><path d="m24.9976296 51.851852v-3.4565927c0-.6542223-.6371555-1.1851853-1.4222222-1.1851853-.7850666 0-1.4222222.530963-1.4222222 1.1851853v3.4565927c0 .654222.6371556 1.185185 1.4222222 1.185185.7850667 0 1.4222222-.530963 1.4222222-1.185185z"/><path d="m31.8468148 48.3952593c0-.6542223-.6371556-1.1851853-1.4222222-1.1851853-.7850667 0-1.4222222.530963-1.4222222 1.1851853v3.4565927c0 .654222.6371555 1.185185 1.4222222 1.185185.7850666 0 1.4222222-.530963 1.4222222-1.185185z"/><path d="m38.696 48.3952593c0-.6542223-.6371556-1.1851853-1.4222222-1.1851853s-1.4222222.530963-1.4222222 1.1851853v3.4565927c0 .654222.6371556 1.185185 1.4222222 1.185185s1.4222222-.530963 1.4222222-1.185185z"/><path d="m48.3952593 18.1484444h3.4565927c.654222 0 1.185185-.6371555 1.185185-1.4222222 0-.7850666-.530963-1.4222222-1.185185-1.4222222h-3.4565927c-.6542223 0-1.1851853.6371556-1.1851853 1.4222222 0 .7850667.530963 1.4222222 1.1851853 1.4222222z"/><path d="m48.3952593 24.9976296h3.4565927c.654222 0 1.185185-.6371555 1.185185-1.4222222 0-.7850666-.530963-1.4222222-1.185185-1.4222222h-3.4565927c-.6542223 0-1.1851853.6371556-1.1851853 1.4222222 0 .7850667.530963 1.4222222 1.1851853 1.4222222z"/><path d="m48.3952593 31.8468148h3.4565927c.654222 0 1.185185-.6371556 1.185185-1.4222222 0-.7850667-.530963-1.4222222-1.185185-1.4222222h-3.4565927c-.6542223 0-1.1851853.6371555-1.1851853 1.4222222 0 .7850666.530963 1.4222222 1.1851853 1.4222222z"/><path d="m48.3952593 38.696h3.4565927c.654222 0 1.185185-.6371556 1.185185-1.4222222s-.530963-1.4222222-1.185185-1.4222222h-3.4565927c-.6542223 0-1.1851853.6371556-1.1851853 1.4222222s.530963 1.4222222 1.1851853 1.4222222z"/><path d="m1.48148148 18.1484444h3.45659259c.65422223 0 1.1851852-.6371555 1.1851852-1.4222222 0-.7850666-.53096297-1.4222222-1.1851852-1.4222222h-3.45659259c-.65422222 0-1.18518518.6371556-1.18518518 1.4222222 0 .7850667.53096296 1.4222222 1.18518518 1.4222222z"/><path d="m1.48148148 24.9976296h3.45659259c.65422223 0 1.1851852-.6371555 1.1851852-1.4222222 0-.7850666-.53096297-1.4222222-1.1851852-1.4222222h-3.45659259c-.65422222 0-1.18518518.6371556-1.18518518 1.4222222 0 .7850667.53096296 1.4222222 1.18518518 1.4222222z"/><path d="m1.48148148 31.8468148h3.45659259c.65422223 0 1.1851852-.6371556 1.1851852-1.4222222 0-.7850667-.53096297-1.4222222-1.1851852-1.4222222h-3.45659259c-.65422222 0-1.18518518.6371555-1.18518518 1.4222222 0 .7850666.53096296 1.4222222 1.18518518 1.4222222z"/><path d="m1.48148148 38.696h3.45659259c.65422223 0 1.1851852-.6371556 1.1851852-1.4222222s-.53096297-1.4222222-1.1851852-1.4222222h-3.45659259c-.65422222 0-1.18518518.6371556-1.18518518 1.4222222s.53096296 1.4222222 1.18518518 1.4222222z"/></g></g></svg>