<svg height="100" viewBox="0 0 100 100" width="100" xmlns="http://www.w3.org/2000/svg"><g fill="none"><circle cx="50" cy="50" fill="#1b80c9" r="50"/><path d="m71.5479581 59.7785029c0-12.6637467-10.712963-27.7577994-20.7066427-40.2689708-.2563974-.3219641-.6455457-.5095321-1.0571286-.5095321s-.8007312.187568-1.0571286.5095321c-10.1353567 12.6528485-20.7066426 27.6161224-20.7066426 40.323462-.5231152 12.5547644 9.0673298 22.1670059 21.7964659 22.1670059s22.2432935-9.6667327 21.7310766-22.2214971z" fill="#fff"/><path d="m40.1878261 59.5844444c.24.34.65.49 1.06.39l5.89-1.47-7.02 14.05-.09.32c-.01.07-.01.13-.01.19l.03.18c.02.08.05.15.07.19l.09.16c.05.07.1.11.1.11.02.02.05.07.13.12l.13.08c.14.07.29.1.45.1.17 0 .33-.04.49-.13l.28-.22 15.05-21.07c.24-.34.25-.8.01-1.14-.24-.35-.67-.51-1.07-.41l-6.01 1.5 7.15-16.13.07-.31c.01-.06 0-.12 0-.19l-.04-.19c-.02-.06-.04-.12-.07-.17l-.1-.16c-.05-.07-.11-.12-.11-.11l-.14-.12c-.02-.01-.03-.02-.05-.03l-.4-.12c-.06-.01-.12 0-.18 0l-.2.04c-.06.02-.11.04-.17.07l-.16.1c-.05.04-.09.08-.11.11l-15.1 23.13c-.22.35-.21.79.03 1.13z" fill="#1b80c9"/></g></svg>