<svg height="100" viewBox="0 0 100 100" width="100" xmlns="http://www.w3.org/2000/svg" xmlns:xlink="http://www.w3.org/1999/xlink"><defs><path id="a" d="m9.02 18.1866667c1.32 0 2.5340741-.2322223 3.6422222-.6966667 1.1081482-.4644444 2.0574074-1.1040741 2.8477778-1.9188889s1.4096296-1.7762963 1.8577778-2.8844444c.4481481-1.1081482.6722222-2.305926.6722222-3.59333337 0-1.2874074-.2240741-2.48518518-.6722222-3.59333333-.4481482-1.10814815-1.0674074-2.06962963-1.8577778-2.88444444-.7903704-.81481482-1.7396296-1.45444445-2.8477778-1.91888889-1.1081481-.46444445-2.3222222-.69666667-3.6422222-.69666667s-2.53407407.23222222-3.64222222.69666667c-1.10814815.46444444-2.05740741 1.10407407-2.84777778 1.91888889-.79037037.81481481-1.40962963 1.77629629-1.85777778 2.88444444s-.67222222 2.30592593-.67222222 3.59333333c0 1.28740737.22407407 2.48518517.67222222 3.59333337.44814815 1.1081481 1.06740741 2.0696296 1.85777778 2.8844444s1.73962963 1.4544445 2.84777778 1.9188889 2.32222222.6966667 3.64222222.6966667zm0-2.2c-.99407407 0-1.89037037-.1833334-2.68888889-.55-.79851852-.3666667-1.48296296-.8596297-2.05333333-1.4788889-.57037037-.6192593-1.01037037-1.3485185-1.32-2.1877778s-.46444445-1.7314815-.46444445-2.67666667c0-.94518518.15481482-1.8374074.46444445-2.67666666s.74962963-1.56851852 1.32-2.18777778 1.25481481-1.11222222 2.05333333-1.47888889 1.69481482-.55 2.68888889-.55c.9940741 0 1.8903704.18333333 2.6888889.55s1.482963.85962963 2.0533333 1.47888889c.5703704.61925926 1.0103704 1.34851852 1.32 2.18777778.3096297.83925926.4644445 1.73148148.4644445 2.67666666 0 .94518517-.1548148 1.83740737-.4644445 2.67666667-.3096296.8392593-.7496296 1.5685185-1.32 2.1877778-.5703703.6192592-1.2548148 1.1122222-2.0533333 1.4788889-.7985185.3666666-1.6948148.55-2.6888889.55z"/><path id="b" d="m25.9577778 19.9688889v-1.44h-4.3733334l2.92-2.7066667c.4266667-.3911111.7755556-.8022222 1.0466667-1.2333333s.4066667-.9444445.4066667-1.54c0-.4533333-.08-.8488889-.24-1.1866667s-.3777778-.6155555-.6533334-.8333333c-.2755555-.2177778-.5977777-.3822222-.9666666-.4933333-.3688889-.1111112-.7666667-.1666667-1.1933334-.1666667-.4266666 0-.8222222.0577778-1.1866666.1733333-.3644445.1155556-.6844445.2844445-.96.5066667-.2755556.2222222-.5.5-.6733334.8333333-.1733333.3333334-.2777777.7177778-.3133333 1.1533334l1.68.1333333c.0533333-.3911111.2088889-.7022222.4666667-.9333333.2577778-.2311112.5866666-.3466667.9866666-.3466667.1866667 0 .3622223.0288889.5266667.0866667.1644445.0577777.3088889.14.4333333.2466666.1244445.1066667.2244445.2355556.3.3866667.0755556.1511111.1133334.3244444.1133334.52 0 .16-.0311111.3133333-.0933334.46-.0622222.1466667-.14.2866667-.2333333.42s-.1977778.26-.3133333.38c-.1155556.12-.2266667.2333333-.3333334.34l-3.6666666 3.5466667v1.6933333z"/></defs><g fill="none"><circle cx="50" cy="50" fill="#1b80c9" r="50"/><path d="m71.5909707 59.8162321c0-12.6733227-10.7210638-27.7787891-20.7223004-40.2994211-.2563972-.3262933-.6484031-.516811-1.0633812-.516811s-.806984.1905177-1.0633812.516811c-10.1321143 12.6515097-20.7223004 27.6260984-20.7223004 40.2994211-.5126043 12.5642579 9.0850927 22.1837679 21.8129478 22.1837679 12.727855 0 22.2710197-9.61951 21.7584154-22.1837679z" fill="#fff"/><g transform="translate(36.774 48.718)"><g><use fill="#000" xlink:href="#a"/><use fill="#1b80c9" stroke="#1b80c9" xlink:href="#a"/></g><g><use fill="#000" xlink:href="#b"/><use fill="#1b80c9" stroke="#1b80c9" xlink:href="#b"/></g></g></g></svg>