<svg height="100" viewBox="0 0 100 100" width="100" xmlns="http://www.w3.org/2000/svg"><g fill="none" fill-rule="evenodd"><circle cx="50" cy="50" fill="#f3ac4e" r="50"/><g fill="#fff" transform="translate(23.333333 19.5)"><path d="m47.4100058 40.4128655c-.2313395.0016516-.4623428.0179375-.6916257.0487602-.9552326-4.4956471-5.1238949-7.5648822-9.7004152-7.1420643-.8564561-7.5466257-6.9112865-13.3968246-14.2585263-13.3968246-6.4088363 0-11.8354678 4.4512807-13.68596492 10.5968071-5.09171203.5276397-8.98716401 4.7750713-9.07347368 9.8933216 0 5.5116959 4.64385965 9.9798246 10.3723333 9.9798246h37.0376725c1.8367572.0833927 3.5708301-.8490196 4.5141304-2.4272515.9433003-1.5782318.9433003-3.5470898 0-5.1253217-.9433003-1.5782318-2.6773732-2.5106442-4.5141304-2.4272514z" fill-rule="nonzero"/><path d="m33.1276316 12.3635831c-3.255307.0011405-6.2071207 1.9119174-7.5409357 4.8814227 5.5797021 1.032767 10.3063022 4.7193254 12.6667485 9.8795556 2.7662103-2.1817575 3.8462081-5.8766452 2.6905063-9.2047586-1.1557017-3.3281133-4.2932551-5.5584382-7.8163191-5.5562197z" fill-rule="nonzero"/><path d="m20.0091632 6.59577208c1.2357962 0 2.237607 1.00181077 2.237607 2.23760698 0 .08255685-.004569.16505044-.0136858.24710236l-.5582739 5.02446508c-.0943033.8487293-.8116951 1.4908256-1.6656473 1.4908256-.8539523 0-1.5713441-.6420963-1.6656473-1.4908256l-.5582739-5.02446508c-.1364709-1.22823776.7485811-2.33455268 1.9768188-2.47102354.0820519-.00911688.1645455-.0136858.2471024-.0136858z" transform="matrix(.51503807 -.8571673 .8571673 .51503807 .192749 22.532227)"/><path d="m30.573821 1.44873169c1.2357962 0 2.237607 1.00181077 2.237607 2.23760698 0 .08255685-.004569.16505044-.0136858.24710235l-.5582739 5.02446506c-.0943033.84872928-.811695 1.49082562-1.6656473 1.49082562s-1.5713441-.64209634-1.6656473-1.49082562l-.5582739-5.02446506c-.1364709-1.22823775.7485811-2.33455267 1.9768188-2.47102354.0820519-.00911688.1645455-.01368579.2471024-.01368579z" transform="matrix(.96592583 -.25881905 .25881905 .96592583 -.497867 8.115785)"/><path d="m46.0937348 25.6627211c1.2357962 0 2.237607 1.0018107 2.237607 2.237607 0 .0825568-.0045689.1650504-.0136858.2471023l-.5582739 5.0244651c-.0943033.8487292-.811695 1.4908256-1.6656473 1.4908256s-1.571344-.6420964-1.6656473-1.4908256l-.5582739-5.0244651c-.1364708-1.2282377.7485811-2.3345527 1.9768188-2.4710235.082052-.0091169.1645455-.0136858.2471024-.0136858z" transform="matrix(-.51503807 .8571673 -.8571673 -.51503807 95.688262 6.187628)"/><path d="m49.3979646 13.7349454c1.2357962 0 2.237607 1.0018107 2.237607 2.2376069 0 .0825569-.004569.1650505-.0136858.2471024l-.5582739 5.0244651c-.0943033.8487292-.811695 1.4908256-1.6656473 1.4908256s-1.5713441-.6420964-1.6656473-1.4908256l-.5582739-5.0244651c-.1364709-1.2282378.7485811-2.3345527 1.9768188-2.4710235.0820519-.0091169.1645455-.0136858.2471024-.0136858z" transform="matrix(.20791169 .9781476 -.9781476 .20791169 56.964018 -33.874814)"/><path d="m42.6545464 3.80634389c1.1245744 0 2.0362221.91164765 2.0362221 2.03622201 0 .06766317-.0033727.13528429-.0101054.20261166l-.5417866 5.41786614c-.0762577.7625767-.71795 1.3433002-1.4843301 1.3433002s-1.4080723-.5807235-1.48433-1.3433002l-.5417866-5.41786614c-.1118993-1.11899331.7045117-2.11682896 1.823505-2.22872829.0673273-.00673274.1349485-.01010538.2026116-.01010538z" transform="matrix(.8480481 .52991926 -.52991926 .8480481 10.883131 -21.341301)"/></g></g></svg>