<svg height="100" viewBox="0 0 100 100" width="100" xmlns="http://www.w3.org/2000/svg"><g fill="none" fill-rule="evenodd"><circle cx="50" cy="50" fill="#1b80c9" fill-rule="nonzero" r="50"/><path d="m71.5909707 59.8162321c0-12.6733227-10.7210638-27.7787891-20.7223004-40.2994211-.2563972-.3262933-.6484031-.516811-1.0633812-.516811s-.806984.1905177-1.0633812.516811c-10.1321143 12.6515097-20.7223004 27.6260984-20.7223004 40.2994211-.5126043 12.5642579 9.0850927 22.1837679 21.8129478 22.1837679 12.727855 0 22.2710197-9.61951 21.7584154-22.1837679z" fill="#fff" fill-rule="nonzero"/><g transform="translate(42 39)"><circle cx="7.077363" cy="25.927" fill="#1b80c9" fill-rule="nonzero" r="3.146"/><g stroke="#1b80c9"><path d="m7.077363 27.5v-18.469" stroke-linecap="round" stroke-width="3"/><path d="m7.36336271 33.0000157c-2.99085148.0061418-5.68700425-1.8010953-6.81774763-4.5699669-1.13074337-2.7688716-.47042343-5.9468149 1.66974763-8.0360488v-15.246c0-2.948 1.474-5.148 5.148-5.148" stroke-width="2"/><path d="m7.03336271 33.0000157c2.99085149.0061418 5.68700429-1.8010953 6.81774759-4.5699669 1.1307434-2.7688716.4704235-5.9468149-1.6697476-8.0360488v-15.246c0-2.948-1.463-5.148-5.14799999-5.148" stroke-width="2"/></g></g></g></svg>