<svg height="100" viewBox="0 0 100 100" width="100" xmlns="http://www.w3.org/2000/svg"><g fill="none"><circle cx="50" cy="50" fill="#ee6053" r="50"/><g fill="#fff"><path d="m59.2869091 22h-19.5250909c-.9689924 0-1.7561182.7824789-1.7618182 1.7514545v53.4867273c0 .4672633.1856196.9153886.5160246 1.2457936s.7785303.5160246 1.2457936.5160246h19.5250909c.9689756-.0057 1.7514545-.7928258 1.7514545-1.7618182v-53.4867273c0-.9673016-.7841529-1.7514545-1.7514545-1.7514545zm-1.7721818 53.4763636h-15.9392728v-11.7005454h5.2958182c.6880743.0810945 1.3598-.2486188 1.7165389-.8425547.3567388-.5939359.3322546-1.3418175-.0625674-1.9111487s-1.0866747-.8544035-1.7679715-.7284784h-5.1818182v-3.1090909h8.4981819c.9730253 0 1.7618181-.7887929 1.7618181-1.7618182s-.7887928-1.7618182-1.7618181-1.7618182h-8.4981819v-3.1090909h5.1818182c.6597948.0507159 1.2923669-.2725655 1.6377824-.8370027.3454156-.5644372.3454156-1.2748302 0-1.8392674-.3454155-.5644372-.9779876-.8877185-1.6377824-.8370026h-5.1818182v-2.964h8.4981819c.9730253 0 1.7618181-.7887929 1.7618181-1.7618182s-.7887928-1.7618182-1.7618181-1.7618182h-8.4981819v-3.0572727h5.1818182c.6597948.0507159 1.2923669-.2725655 1.6377824-.8370027.3454156-.5644372.3454156-1.2748302 0-1.8392674-.3454155-.5644372-.9779876-.8877186-1.6377824-.8370027h-5.2647272v-3.1090909h8.5810909c.9179445-.0705588 1.6267923-.835984 1.6267923-1.7566363s-.7088478-1.6860775-1.6267923-1.7566364h-8.4981819v-1.8447273h15.9392728z"/><circle cx="51.67" cy="71.82" r="2.92"/></g></g></svg>