<?xml version="1.0" encoding="UTF-8"?>
<svg width="14px" height="14px" viewBox="0 0 14 14" version="1.1" xmlns="http://www.w3.org/2000/svg" xmlns:xlink="http://www.w3.org/1999/xlink">
    <!-- Generator: Sketch 64 (93537) - https://sketch.com -->
    <title>Shape</title>
    <desc>Created with Sketch.</desc>
    <g id="Projects" stroke="none" stroke-width="1" fill="none" fill-rule="evenodd">
        <g id="06_Projects_UI_Desktop" transform="translate(-1085.000000, -298.000000)" fill="#1B80C9" fill-rule="nonzero">
            <g id="Group-18" transform="translate(1085.000000, 294.000000)">
                <path d="M14,8.2 L14,8.9 L0,8.9 L0,8.2 C0,7.04020203 0.940202025,6.1 2.1,6.1 L2.8,6.1 L2.8,4.7 C2.8,4.31340068 3.11340068,4 3.5,4 C3.88659932,4 4.2,4.31340068 4.2,4.7 L4.2,6.1 L9.8,6.1 L9.8,4.7 C9.8,4.31340068 10.1134007,4 10.5,4 C10.8865993,4 11.2,4.31340068 11.2,4.7 L11.2,6.1 L11.9,6.1 C13.059798,6.1 14,7.04020203 14,8.2 Z M0,15.9 C0,17.059798 0.940202025,18 2.1,18 L11.9,18 C13.059798,18 14,17.059798 14,15.9 L14,10.3 L0,10.3 L0,15.9 Z" id="Shape"></path>
            </g>
        </g>
    </g>
</svg>