<?xml version="1.0" encoding="UTF-8"?>
<svg width="17px" height="17px" viewBox="0 0 17 17" version="1.1" xmlns="http://www.w3.org/2000/svg" xmlns:xlink="http://www.w3.org/1999/xlink">
    <!-- Generator: Sketch 64 (93537) - https://sketch.com -->
    <title>close</title>
    <desc>Created with Sketch.</desc>
    <g id="Page-1" stroke="none" stroke-width="1" fill="none" fill-rule="evenodd" stroke-linecap="round">
        <g id="close" transform="translate(-5.000000, -5.000000)" fill="#2C3E50" fill-rule="nonzero">
            <g id="Group" transform="translate(13.435029, 13.435029) rotate(45.000000) translate(-13.435029, -13.435029) translate(3.935029, 3.935029)">
                <path d="M9.49999999,-0.999999998 C10.0128358,-0.999999998 10.4355071,-0.613959809 10.4932723,-0.116621125 L10.5,1.6780316e-09 L10.5,19 C10.5,19.5522847 10.0522847,20 9.49999999,20 C8.98716415,20 8.56449283,19.6139598 8.50672772,19.1166211 L8.49999999,19 L8.49999999,1.6780316e-09 C8.49999999,-0.552284749 8.94771524,-0.999999998 9.49999999,-0.999999998 Z" id="Path"></path>
                <path d="M9.49999999,-0.999999998 C10.0128358,-0.999999998 10.4355071,-0.613959809 10.4932723,-0.116621125 L10.5,1.6780316e-09 L10.5,19 C10.5,19.5522847 10.0522847,20 9.49999999,20 C8.98716415,20 8.56449283,19.6139598 8.50672772,19.1166211 L8.49999999,19 L8.49999999,1.6780316e-09 C8.49999999,-0.552284749 8.94771524,-0.999999998 9.49999999,-0.999999998 Z" id="Path" transform="translate(9.500000, 9.500000) rotate(90.000000) translate(-9.500000, -9.500000) "></path>
            </g>
        </g>
    </g>
</svg>