<?xml version="1.0" encoding="UTF-8"?>
<svg width="16px" height="16px" viewBox="0 0 16 16" version="1.1" xmlns="http://www.w3.org/2000/svg" xmlns:xlink="http://www.w3.org/1999/xlink">
    <!-- Generator: Sketch 64 (93537) - https://sketch.com -->
    <title>compare</title>
    <desc>Created with Sketch.</desc>
    <g id="Page-1" stroke="none" stroke-width="1" fill="none" fill-rule="evenodd">
        <g id="compare" transform="translate(0.000000, 1.000000)" fill="#2C3E50" fill-rule="nonzero">
            <rect id="Rectangle" x="0" y="4.5" width="10.5" height="10.5" rx="1"></rect>
            <path d="M15,-1 C15.5128358,-1 15.9355072,-0.61395981 15.9932723,-0.116621125 L16,0 L16,9 C16,9.51283584 15.6139598,9.93550716 15.1166211,9.99327227 L15,10 L12.375,10 C11.8227153,10 11.375,9.55228475 11.375,9 C11.375,8.48716416 11.7610402,8.06449284 12.2583789,8.00672773 L12.375,8 L14,8 L14,1 L7,1 L7,3 C7,3.51283584 6.61395981,3.93550716 6.11662113,3.99327227 L6,4 C5.48716416,4 5.06449284,3.61395981 5.00672773,3.11662113 L5,3 L5,0 C5,-0.512835839 5.38604019,-0.935507161 5.88337887,-0.993272269 L6,-1 L15,-1 Z" id="Path"></path>
        </g>
    </g>
</svg>