<?xml version="1.0" encoding="UTF-8" standalone="no"?>
<!DOCTYPE svg PUBLIC "-//W3C//DTD SVG 1.1//EN" "http://www.w3.org/Graphics/SVG/1.1/DTD/svg11.dtd">
<svg width="100%" height="100%" viewBox="0 0 16 16" version="1.1" xmlns="http://www.w3.org/2000/svg" xmlns:xlink="http://www.w3.org/1999/xlink" xml:space="preserve" xmlns:serif="http://www.serif.com/" style="fill-rule:evenodd;clip-rule:evenodd;stroke-linejoin:round;stroke-miterlimit:2;">
    <path id="Stroke-3" d="M10.273,2.799C10.284,2.78 10.298,2.762 10.314,2.746L10.822,2.238C10.838,2.222 10.855,2.208 10.874,2.198C11.496,1.576 12.078,0.993 12.587,0.484C12.626,0.445 12.69,0.445 12.73,0.484L13.387,1.145C13.868,1.629 14.341,2.101 14.813,2.568L15.487,3.244C15.526,3.283 15.526,3.345 15.487,3.385C14.98,3.894 14.399,4.476 13.779,5.096C13.768,5.117 13.754,5.136 13.737,5.153L13.231,5.661C13.213,5.678 13.193,5.693 13.172,5.704C11.274,7.603 9.133,9.741 7.648,11.221C7.553,11.317 7.412,11.387 7.279,11.42C6.377,11.657 5.473,11.881 4.567,12.103C4.047,12.231 3.748,11.924 3.877,11.398C4.103,10.49 4.327,9.579 4.563,8.673C4.6,8.534 4.673,8.406 4.775,8.304C6.249,6.824 8.381,4.691 10.273,2.799ZM12.315,5.11L10.864,3.659C9.094,5.428 6.973,7.55 5.618,8.906C5.583,8.941 5.54,8.982 5.527,9.03C5.37,9.646 5.218,10.262 5.057,10.908C5.152,10.89 5.216,10.879 5.281,10.865C5.782,10.74 6.288,10.62 6.788,10.483C6.91,10.45 7.039,10.38 7.13,10.291C8.467,8.958 10.582,6.844 12.315,5.11ZM11.735,2.788L13.185,4.239C13.446,3.977 13.691,3.732 13.914,3.509C13.949,3.476 13.982,3.441 14.015,3.403C14.052,3.364 14.05,3.3 14.011,3.262C13.565,2.816 13.136,2.385 12.705,1.956C12.665,1.919 12.603,1.921 12.566,1.958C12.312,2.212 12.033,2.491 11.735,2.788ZM8.403,1.337L8.523,1.337C8.608,1.337 8.677,1.408 8.677,1.493L8.677,2.231C8.677,2.315 8.615,2.388 8.521,2.388L8.347,2.388C6.57,2.388 4.796,2.385 3.019,2.39C2.486,2.39 2.07,2.701 1.952,3.187C1.926,3.3 1.923,3.423 1.923,3.54C1.921,6.66 1.921,9.78 1.921,12.9C1.921,13.267 2.031,13.564 2.236,13.769C2.442,13.974 2.742,14.084 3.11,14.084C6.212,14.084 9.314,14.073 12.417,14.09C13.19,14.094 13.628,13.498 13.619,12.892C13.594,11.152 13.61,9.41 13.61,7.667C13.61,7.666 13.61,7.665 13.61,7.663L13.61,7.479C13.61,7.396 13.683,7.323 13.767,7.323L14.496,7.323C14.577,7.323 14.641,7.38 14.651,7.461L14.652,7.471C14.654,7.516 14.659,7.56 14.659,7.603C14.661,9.39 14.663,11.178 14.659,12.967C14.659,14.042 13.931,14.909 12.875,15.099C12.743,15.123 12.605,15.123 12.469,15.123C9.342,15.126 6.216,15.126 3.089,15.123C1.868,15.123 0.877,14.132 0.877,12.913C0.874,9.778 0.874,6.645 0.877,3.513C0.877,2.246 1.777,1.342 3.039,1.339C4.827,1.335 6.614,1.337 8.403,1.337Z" style="fill:rgb(44,62,80);"/>
</svg>
