<?xml version="1.0" encoding="UTF-8" standalone="no"?><!DOCTYPE svg PUBLIC "-//W3C//DTD SVG 1.1//EN" "http://www.w3.org/Graphics/SVG/1.1/DTD/svg11.dtd"><svg width="100%" height="100%" viewBox="0 0 71 70" version="1.1" xmlns="http://www.w3.org/2000/svg" xmlns:xlink="http://www.w3.org/1999/xlink" xml:space="preserve" xmlns:serif="http://www.serif.com/" style="fill-rule:evenodd;clip-rule:evenodd;stroke-linejoin:round;stroke-miterlimit:2;"><path d="M35.417,7.442l-31.25,-0c-2.302,-0 -4.167,1.865 -4.167,4.166l-0,53.571c-0,2.301 1.865,4.167 4.167,4.167l55.058,-0c2.301,-0 4.167,-1.866 4.167,-4.167l-0,-28.275c-0,-2.299 -1.867,-4.167 -4.167,-4.166c-2.3,-0 -4.167,1.867 -4.167,4.166l0,24.109c0,-0 -46.725,-0 -46.725,-0c0,-0.001 0,-45.238 0,-45.238c0,0 27.084,0 27.084,0c2.299,0 4.166,-1.867 4.166,-4.167c0,-2.299 -1.867,-4.166 -4.166,-4.166Zm21.19,0.891l-27.112,27.112c-1.626,1.626 -1.626,4.267 0,5.893c1.626,1.626 4.267,1.626 5.893,-0l27.112,-27.112l0,6.312c-0,2.299 1.867,4.166 4.167,4.166c2.299,0 4.166,-1.867 4.166,-4.166l0,-16.371c0,-0.711 -0.178,-1.38 -0.491,-1.966c-0.151,-0.282 -0.337,-0.55 -0.557,-0.798l-0.078,-0.085l-0.058,-0.061l-0.074,-0.074l-0.078,-0.074l-0.066,-0.06c-0.249,-0.221 -0.517,-0.406 -0.799,-0.557c-0.586,-0.314 -1.255,-0.492 -1.965,-0.492l-16.371,-0c-2.3,-0 -4.167,1.867 -4.167,4.167c0,2.299 1.867,4.166 4.167,4.166l6.311,0Z" style="fill:#fff;"/></svg>