<?xml version="1.0" encoding="UTF-8"?>
<svg width="20px" height="20px" viewBox="0 0 20 20" version="1.1" xmlns="http://www.w3.org/2000/svg" xmlns:xlink="http://www.w3.org/1999/xlink">
    <!-- Generator: Sketch 60.1 (88133) - https://sketch.com -->
    <title>Icon_FieldNotes</title>
    <desc>Created with Sketch.</desc>
    <g id="UI_Deploy" stroke="none" stroke-width="1" fill="none" fill-rule="evenodd">
        <g id="16_UI_Mobile_Deploy" transform="translate(-35.000000, -303.000000)" fill="#1B80C9" fill-rule="nonzero">
            <g id="Icon_FieldNotes" transform="translate(35.000000, 303.000000)">
                <path d="M14,0 L2,0 C1.4,0 1,0.4 1,1 L1,3 C0.4,3 0,3.4 0,4 C0,4.6 0.4,5 1,5 L1,15 C0.4,15 0,15.4 0,16 C0,16.6 0.4,17 1,17 L1,19 C1,19.6 1.4,20 2,20 L14,20 C14.6,20 15,19.6 15,19 L15,1 C15,0.4 14.6,0 14,0 Z M8,13 L4,13 C3.4,13 3,12.6 3,12 C3,11.4 3.4,11 4,11 L8,11 C8.6,11 9,11.4 9,12 C9,12.6 8.6,13 8,13 Z M12,9 L4,9 C3.4,9 3,8.6 3,8 C3,7.4 3.4,7 4,7 L12,7 C12.6,7 13,7.4 13,8 C13,8.6 12.6,9 12,9 Z M12,5 L4,5 C3.4,5 3,4.6 3,4 C3,3.4 3.4,3 4,3 L12,3 C12.6,3 13,3.4 13,4 C13,4.6 12.6,5 12,5 Z" id="Shape"></path>
                <path d="M19,0 L18,0 C17.4,0 17,0.4 17,1 L17,15 L20,15 L20,1 C20,0.4 19.6,0 19,0 Z" id="Path"></path>
                <polygon id="Path" points="18.5 20 20 17 17 17"></polygon>
            </g>
        </g>
    </g>
</svg>