<svg xmlns="http://www.w3.org/2000/svg" width="147" height="44" viewBox="0 0 147 44">
    <defs>
        <linearGradient id="0owcuz6cxa" x1="80.758%" x2="-157.297%" y1="49.998%" y2="49.998%">
            <stop offset="0%" stop-color="#FEDF00"/>
            <stop offset="100%" stop-color="#F89B1B"/>
        </linearGradient>
        <linearGradient id="zom312geob" x1="86.25%" x2="-50.143%" y1="17.846%" y2="194.804%">
            <stop offset="0%" stop-color="#EF4547"/>
            <stop offset="100%" stop-color="#C7186D"/>
        </linearGradient>
        <linearGradient id="oakw9l00pc" x1="-50.752%" x2="60.611%" y1="-95.604%" y2="48.886%">
            <stop offset="0%" stop-color="#279E70"/>
            <stop offset="100%" stop-color="#73C168"/>
        </linearGradient>
    </defs>
    <g fill="none">
        <path fill="#000" d="M141.235 43.722H5.432C2.444 43.722 0 41.262 0 38.257V5.465C0 2.46 2.444 0 5.432 0h135.803c2.987 0 5.432 2.46 5.432 5.465v32.792c0 3.005-2.445 5.465-5.432 5.465z"/>
        <path fill="#FFF" d="M51.516 11.197c0 .916-.27 1.645-.81 2.19-.613.646-1.412.969-2.394.969-.94 0-1.742-.328-2.399-.984-.66-.657-.987-1.47-.987-2.442 0-.97.328-1.783.987-2.44.657-.657 1.458-.985 2.399-.985.466 0 .914.092 1.337.275.425.184.765.428 1.02.733l-.573.577c-.431-.52-1.026-.778-1.784-.778-.687 0-1.28.242-1.78.727-.501.486-.751 1.116-.751 1.891 0 .777.25 1.407.75 1.893.501.485 1.094.727 1.781.727.728 0 1.334-.243 1.82-.732.316-.318.498-.76.546-1.328h-2.366v-.788h3.158c.03.172.046.336.046.495z"/>
        <path fill="#FFF" d="M51.516 11.197h-.109c0 .895-.26 1.59-.778 2.112v.002c-.595.624-1.358.935-2.317.936-.916-.001-1.683-.315-2.323-.952-.639-.639-.954-1.418-.955-2.365.001-.946.316-1.724.955-2.363.64-.637 1.407-.952 2.323-.953.452 0 .883.089 1.295.267.412.178.737.412.979.702l.084-.07-.078-.078-.572.577.076.078.084-.07c-.452-.546-1.086-.82-1.868-.818-.713 0-1.338.255-1.856.759-.523.506-.785 1.172-.784 1.97-.001.798.26 1.464.784 1.97.518.504 1.143.76 1.856.759.752 0 1.393-.256 1.897-.764.337-.34.528-.811.578-1.397l.01-.118h-2.376v-.57h3.05v-.109l-.107.02c.03.165.043.322.043.475h.217c0-.166-.015-.338-.047-.515l-.016-.09h-3.358V11.6h2.475v-.11l-.107-.01c-.048.55-.222.964-.515 1.26-.467.468-1.04.7-1.744.701-.662 0-1.221-.23-1.705-.697-.479-.466-.717-1.06-.718-1.814.001-.752.24-1.346.718-1.812.484-.468 1.043-.696 1.705-.697.734 0 1.288.246 1.701.739l.076.092.657-.662.07-.07-.064-.077c-.267-.32-.622-.574-1.06-.763-.437-.19-.9-.284-1.38-.284-.967-.002-1.8.34-2.476 1.016-.678.674-1.02 1.523-1.019 2.518-.001.996.341 1.844 1.019 2.52.676.675 1.51 1.016 2.476 1.015 1.005.001 1.84-.334 2.473-1.003l-.079-.075.078.076c.562-.565.842-1.33.84-2.266h-.108zM56.523 8.458L53.555 8.458 53.555 10.537 56.232 10.537 56.232 11.325 53.555 11.325 53.555 13.404 56.523 13.404 56.523 14.21 52.717 14.21 52.717 7.651 56.523 7.651z"/>
        <path fill="#FFF" d="M56.523 8.458L56.523 8.349 53.446 8.349 53.446 10.646 56.123 10.646 56.123 11.216 53.446 11.216 53.446 13.513 56.415 13.513 56.415 14.1 52.826 14.1 52.826 7.761 56.415 7.761 56.415 8.458 56.523 8.458 56.523 8.349 56.523 8.458 56.632 8.458 56.632 7.542 52.609 7.542 52.609 14.319 56.632 14.319 56.632 13.295 53.664 13.295 53.664 11.434 56.341 11.434 56.341 10.428 53.664 10.428 53.664 8.567 56.632 8.567 56.632 8.458zM60.055 14.21L59.217 14.21 59.217 8.458 57.397 8.458 57.397 7.651 61.876 7.651 61.876 8.458 60.055 8.458z"/>
        <path fill="#FFF" d="M60.055 14.21L60.055 14.1 59.326 14.1 59.326 8.349 57.505 8.349 57.505 7.761 61.767 7.761 61.767 8.349 59.946 8.349 59.946 14.21 60.055 14.21 60.055 14.1 60.055 14.21 60.164 14.21 60.164 8.567 61.985 8.567 61.985 7.542 57.288 7.542 57.288 8.458 57.288 8.567 59.109 8.567 59.109 14.319 60.164 14.319 60.164 14.21zM65.118 14.21L65.954 14.21 65.954 7.651 65.118 7.651z"/>
        <path fill="#FFF" d="M65.118 14.21L65.226 14.21 65.226 7.761 65.846 7.761 65.846 14.1 65.118 14.1 65.118 14.21 65.226 14.21 65.118 14.21 65.118 14.319 66.063 14.319 66.063 7.542 65.118 7.542 65.009 7.542 65.009 14.319 65.118 14.319zM69.67 14.21L68.831 14.21 68.831 8.458 67.011 8.458 67.011 7.651 71.491 7.651 71.491 8.458 69.67 8.458z"/>
        <path fill="#FFF" d="M69.67 14.21L69.67 14.1 68.94 14.1 68.94 8.349 67.12 8.349 67.12 7.761 71.382 7.761 71.382 8.349 69.561 8.349 69.561 14.21 69.67 14.21 69.67 14.1 69.67 14.21 69.779 14.21 69.779 8.567 71.599 8.567 71.599 7.542 66.903 7.542 66.903 8.458 66.903 8.567 68.723 8.567 68.723 14.319 69.779 14.319 69.779 14.21zM75.81 12.814c.482.49 1.072.736 1.77.736s1.289-.245 1.771-.736c.482-.492.725-1.12.725-1.884 0-.763-.243-1.39-.725-1.882-.482-.49-1.073-.736-1.77-.736-.7 0-1.29.245-1.772.736-.482.492-.723 1.12-.723 1.882 0 .764.24 1.392.723 1.884zm4.16.548c-.64.664-1.437.994-2.39.994-.953 0-1.75-.33-2.389-.994-.64-.662-.96-1.473-.96-2.432 0-.958.32-1.768.96-2.43.639-.664 1.436-.995 2.39-.995.947 0 1.74.333 2.385.999.643.666.965 1.474.965 2.426 0 .959-.32 1.77-.96 2.432z"/>
        <path fill="#FFF" d="M75.81 12.814l-.078.076c.5.512 1.125.77 1.848.77.724 0 1.348-.258 1.848-.77.503-.511.757-1.173.756-1.96.001-.785-.253-1.447-.756-1.958-.5-.512-1.124-.77-1.848-.77-.723 0-1.348.258-1.848.77-.503.511-.756 1.173-.755 1.958-.001.787.252 1.449.755 1.96l.077-.076.077-.078c-.46-.471-.69-1.064-.692-1.806.001-.74.232-1.333.692-1.805.465-.471 1.02-.703 1.694-.704.673 0 1.229.233 1.693.704.463.472.693 1.065.694 1.805-.001.742-.231 1.335-.694 1.806-.464.472-1.02.704-1.693.705-.673 0-1.229-.233-1.694-.705l-.077.078zm4.16.548l-.078-.076c-.622.643-1.384.96-2.312.96-.928 0-1.69-.317-2.312-.96l-.003-.002.003.002c-.621-.644-.928-1.421-.929-2.356.001-.933.308-1.71.93-2.354.62-.643 1.383-.96 2.311-.962.923.001 1.682.32 2.308.966.624.647.933 1.422.934 2.35-.001.935-.31 1.712-.93 2.356l.078.076.078.077c.659-.681.992-1.525.991-2.509.001-.977-.333-1.818-.995-2.503-.663-.685-1.492-1.033-2.464-1.031-.978-.002-1.81.344-2.467 1.027-.66.681-.992 1.525-.99 2.507-.002.984.33 1.828.99 2.509l.003.003-.003-.003c.657.683 1.49 1.027 2.467 1.026.978.001 1.809-.343 2.468-1.026l-.078-.077zM82.106 14.21L82.106 7.651 83.125 7.651 86.293 12.754 86.329 12.754 86.293 11.49 86.293 7.651 87.132 7.651 87.132 14.21 86.257 14.21 82.943 8.861 82.907 8.861 82.943 10.125 82.943 14.21z"/>
        <path fill="#FFF" d="M82.106 14.21L82.215 14.21 82.215 7.761 83.065 7.761 86.233 12.863 86.441 12.863 86.402 11.488 86.402 7.761 87.023 7.761 87.023 14.1 86.318 14.1 83.004 8.752 82.907 8.752 82.795 8.752 82.834 10.127 82.834 14.1 82.106 14.1 82.106 14.21 82.215 14.21 82.106 14.21 82.106 14.319 83.051 14.319 83.051 10.124 83.016 8.858 82.907 8.861 82.907 8.971 82.943 8.971 82.943 8.861 82.85 8.919 86.198 14.319 87.241 14.319 87.241 7.542 86.293 7.542 86.185 7.542 86.185 11.491 86.22 12.757 86.329 12.754 86.329 12.644 86.293 12.644 86.293 12.754 86.386 12.696 83.186 7.542 82.106 7.542 81.998 7.542 81.998 14.319 82.106 14.319zM116.177 32.792h2.028V19.127h-2.028v13.665zm18.26-8.743l-2.324 5.924h-.07l-2.411-5.924h-2.184l3.617 8.281-2.062 4.605h2.115l5.573-12.886h-2.254zm-11.497 7.19c-.665 0-1.59-.333-1.59-1.16 0-1.054 1.154-1.459 2.149-1.459.892 0 1.31.194 1.852.457-.157 1.266-1.24 2.162-2.41 2.162zm.245-7.488c-1.468 0-2.988.65-3.617 2.092l1.8.756c.384-.756 1.1-1.002 1.852-1.002 1.048 0 2.114.633 2.131 1.758v.14c-.367-.21-1.153-.527-2.114-.527-1.94 0-3.914 1.072-3.914 3.077 0 1.827 1.59 3.005 3.372 3.005 1.363 0 2.114-.615 2.587-1.335h.07v1.054h1.956v-5.238c0-2.427-1.8-3.78-4.123-3.78zm-12.529 1.962h-2.883v-4.684h2.883c1.516 0 2.376 1.263 2.376 2.342 0 1.06-.86 2.342-2.376 2.342zm-.052-6.586h-4.857v13.665h2.026v-5.177h2.831c2.247 0 4.455-1.637 4.455-4.244 0-2.608-2.208-4.244-4.455-4.244zM84.115 31.242c-1.4 0-2.573-1.18-2.573-2.8 0-1.637 1.174-2.834 2.573-2.834 1.383 0 2.468 1.197 2.468 2.834 0 1.62-1.085 2.8-2.468 2.8zm2.328-6.427h-.07c-.455-.546-1.33-1.04-2.433-1.04-2.31 0-4.428 2.044-4.428 4.667 0 2.607 2.118 4.631 4.428 4.631 1.103 0 1.978-.493 2.434-1.056h.07v.67c0 1.778-.946 2.729-2.47 2.729-1.241 0-2.011-.899-2.326-1.655l-1.768.739c.507 1.233 1.855 2.748 4.095 2.748 2.381 0 4.393-1.41 4.393-4.844v-8.346h-1.925v.757zm3.326 7.977h2.03V19.127h-2.03v13.665zm5.023-4.508c-.053-1.796 1.383-2.712 2.415-2.712.807 0 1.489.405 1.716.987l-4.13 1.725zm6.302-1.55c-.385-1.039-1.558-2.958-3.956-2.958-2.38 0-4.359 1.884-4.359 4.649 0 2.607 1.96 4.648 4.586 4.648 2.118 0 3.344-1.303 3.851-2.06l-1.575-1.056c-.525.775-1.243 1.285-2.276 1.285-1.033 0-1.768-.475-2.24-1.408l6.178-2.571-.21-.528zm-49.225-1.532v1.972h4.691c-.14 1.11-.507 1.92-1.068 2.484-.682.686-1.75 1.443-3.623 1.443-2.888 0-5.145-2.342-5.145-5.247 0-2.906 2.257-5.248 5.145-5.248 1.558 0 2.695.617 3.536 1.409l1.382-1.391c-1.172-1.127-2.73-1.99-4.918-1.99-3.956 0-7.281 3.24-7.281 7.22 0 3.98 3.325 7.22 7.28 7.22 2.137 0 3.747-.705 5.007-2.025 1.295-1.304 1.698-3.135 1.698-4.614 0-.458-.036-.88-.105-1.233h-6.6zm12.036 6.04c-1.4 0-2.607-1.161-2.607-2.817 0-1.673 1.207-2.817 2.607-2.817 1.4 0 2.608 1.144 2.608 2.817 0 1.656-1.207 2.817-2.608 2.817zm0-7.466c-2.555 0-4.638 1.954-4.638 4.649 0 2.676 2.083 4.648 4.638 4.648 2.556 0 4.638-1.972 4.638-4.648 0-2.695-2.082-4.65-4.638-4.65zm10.118 7.466c-1.4 0-2.607-1.161-2.607-2.817 0-1.673 1.208-2.817 2.607-2.817 1.4 0 2.609 1.144 2.609 2.817 0 1.656-1.208 2.817-2.609 2.817zm0-7.466c-2.555 0-4.638 1.954-4.638 4.649 0 2.676 2.083 4.648 4.638 4.648 2.557 0 4.64-1.972 4.64-4.648 0-2.695-2.083-4.65-4.64-4.65z"/>
        <path fill="#5BC9F4" d="M11.337 8.25c-.316.336-.503.858-.503 1.535v24.153c0 .677.187 1.199.503 1.535l.08.078 13.448-13.53v-.32L11.416 8.171l-.08.08z"/>
        <path fill="url(#0owcuz6cxa)" d="M29.347 26.533l-4.482-4.513v-.319l4.484-4.51.1.057 5.312 3.037c1.517.866 1.517 2.286 0 3.153l-5.311 3.037-.103.058z"/>
        <path fill="url(#zom312geob)" d="M29.45 26.475l-4.585-4.614-13.528 13.612c.5.532 1.325.599 2.255.066l15.858-9.064z"/>
        <path fill="url(#oakw9l00pc)" d="M29.45 17.248L13.592 8.184c-.93-.533-1.755-.467-2.255.066l13.528 13.61 4.585-4.612z"/>
    </g>
</svg>
