<?xml version="1.0" encoding="UTF-8" standalone="no"?>
<!DOCTYPE svg PUBLIC "-//W3C//DTD SVG 1.1//EN" "http://www.w3.org/Graphics/SVG/1.1/DTD/svg11.dtd">
<svg width="100%" height="100%" viewBox="0 0 11 12" version="1.1" xmlns="http://www.w3.org/2000/svg" xmlns:xlink="http://www.w3.org/1999/xlink" xml:space="preserve" xmlns:serif="http://www.serif.com/" style="fill-rule:evenodd;clip-rule:evenodd;stroke-linejoin:round;stroke-miterlimit:2;">
    <g id="Shape" transform="matrix(1,0,0,1,0,-4)">
        <path d="M10.5,8L8.5,8C8,8 8,8 8,8.5L8,10.5C8,11 8,11 8.5,11L10.5,11C11,11 11,11 11,10.5L11,8.5C11,8 11,8 10.5,8L10.5,8ZM6.5,4L4.5,4C4,4 4,4 4,4.5L4,6.5C4,7 4,7 4.5,7L6.5,7C7,7 7,7 7,6.5L7,4.5C7,4 7,4 6.5,4ZM10.5,12L8.5,12C8,12 8,12 8,12.5L8,14.5C8,15 8,15 8.5,15L10.5,15C11,15 11,15 11,14.5L11,12.5C11,12 11,12 10.5,12L10.5,12ZM6.5,8L4.5,8C4,8 4,8 4,8.5L4,10.5C4,11 4,11 4.5,11L6.5,11C7,11 7,11 7,10.5L7,8.5C7,8 7,8 6.5,8ZM2.5,4L0.5,4C0,4 0,4 0,4.5L0,6.5C0,7 0,7 0.5,7L2.5,7C3,7 3,7 3,6.5L3,4.5C3,4 3,4 2.5,4L2.5,4ZM6.5,12L4.5,12C4,12 4,12 4,12.5L4,14.5C4,15 4,15 4.5,15L6.5,15C7,15 7,15 7,14.5L7,12.5C7,12 7,12 6.5,12L6.5,12ZM2.5,8L0.5,8C0,8 0,8 0,8.5L0,10.5C0,11 0,11 0.5,11L2.5,11C3,11 3,11 3,10.5L3,8.5C3,8 3,8 2.5,8L2.5,8ZM2.5,12L0.5,12C0,12 0,12 0,12.5L0,14.5C0,15 0,15 0.5,15L2.5,15C3,15 3,15 3,14.5L3,12.5C3,12 3,12 2.5,12L2.5,12ZM10.5,4L8.5,4C8,4 8,4 8,4.5L8,6.5C8,7 8,7 8.5,7L10.5,7C11,7 11,7 11,6.5L11,4.5C11,4 11,4 10.5,4L10.5,4Z" style="fill:rgb(39,62,82);fill-rule:nonzero;"/>
    </g>
</svg>
