<svg xmlns="http://www.w3.org/2000/svg" width="23" height="18" viewBox="0 0 23 18">
    <path fill="#D8DCE0" fill-rule="evenodd" d="M20.407 13.85c1.105 0 2 .896 2 2V16c0 1.105-.895 2-2 2H8.667c-1.104 0-2-.895-2-2v-.15c0-1.104.896-2 2-2h11.74zm-18.258 0c1.105 0 2 .896 2 2V16c0 1.105-.895 2-2 2H2c-1.105 0-2-.895-2-2v-.15c0-1.104.895-2 2-2h.15zm0-6.925c1.105 0 2 .896 2 2v.15c0 1.104-.895 2-2 2H2c-1.105 0-2-.896-2-2v-.15c0-1.104.895-2 2-2h.15zm18.258 0c1.105 0 2 .896 2 2v.15c0 1.104-.895 2-2 2H8.667c-1.104 0-2-.896-2-2v-.15c0-1.104.896-2 2-2h11.74zM2.149 0c1.105 0 2 .895 2 2v.15c0 1.104-.895 2-2 2H2c-1.105 0-2-.896-2-2V2C0 .895.895 0 2 0h.15zm18.258 0c1.105 0 2 .895 2 2v.15c0 1.104-.895 2-2 2H8.667c-1.104 0-2-.896-2-2V2c0-1.105.896-2 2-2h11.74z"/>
</svg>
