<svg height="18" viewBox="0 0 18 18" width="18" xmlns="http://www.w3.org/2000/svg"><g fill="none" fill-rule="evenodd"><circle cx="9" cy="9" fill="#c42c44" r="9"/><path d="m9.87428571 11.3554286h-1.85142857v-7.49828574h1.85142857zm-2.16 2.3451428c0-.3291445.12085594-.6119988.36257143-.8485714.2417155-.2365726.53228402-.3548571.87171429-.3548571.3291445 0 .61714162.1131417.864.3394285.24685837.2262869.37028567.5039984.37028567.8331429s-.1208559.6119988-.36257139.8485714-.53228401.3548572-.87171428.3548572c-.16457225 0-.32142783-.0308569-.47057143-.0925715s-.28028515-.1439995-.39342857-.2468571c-.11314342-.1028577-.20314252-.226285-.27-.3702857s-.10028572-.2982849-.10028572-.4628572z" fill="#fff" fill-rule="nonzero"/></g></svg>