<?xml version="1.0" encoding="UTF-8"?>
<svg width="19px" height="20px" viewBox="0 0 19 20" version="1.1" xmlns="http://www.w3.org/2000/svg" xmlns:xlink="http://www.w3.org/1999/xlink">
    <!-- Generator: Sketch 64 (93537) - https://sketch.com -->
    <title>Combined Shape</title>
    <desc>Created with Sketch.</desc>
    <g id="Notifications" stroke="none" stroke-width="1" fill="none" fill-rule="evenodd">
        <g id="02b_Notifications_UI_Mobile" transform="translate(-223.000000, -84.000000)" fill="#2C3E50" fill-rule="nonzero">
            <g id="Group-14" transform="translate(0.000000, 53.000000)">
                <path d="M232.123565,41.1372941 C237.073007,41.1372941 241.120418,44.4253833 241.247129,48.5492147 L241.247129,48.5492147 L241.247129,49.0054646 C241.247129,50.1070161 240.175717,51 238.854063,51 L238.854063,51 L225.393066,51 C224.758386,51 224.1497,50.7898621 223.700913,50.4158141 C223.252126,50.0417662 223,49.5344483 223,49.0054646 L223,49.0054646 L223,48.5492147 C223.126711,44.4253833 227.174123,41.1372941 232.123565,41.1372941 Z M229.938955,31.3566921 C231.685688,30.632353 233.696765,31.0316841 235.034235,32.3684404 C236.371704,33.7051967 236.772108,35.7160607 236.048701,37.4631796 C235.325294,39.2102984 233.620574,40.3495209 231.729611,40.3495209 C229.14996,40.3467755 227.05904,38.2569701 227.054918,35.6773218 C227.05391,33.7863587 228.192222,32.0810313 229.938955,31.3566921 Z" id="Combined-Shape"></path>
            </g>
        </g>
    </g>
</svg>