<svg xmlns="http://www.w3.org/2000/svg" width="14" height="14" viewBox="0 0 14 14">
    <g fill="none" fill-rule="evenodd">
        <g fill="#2C3E50">
            <g>
                <g>
                    <path d="M11 2c1.657 0 3 1.343 3 3v8c0 1.657-1.343 3-3 3H3c-1.657 0-3-1.343-3-3V5c0-1.657 1.343-3 3-3h8zm.449 4.308c-.506 0-.926.407-.926.898 0 .136.033.261.087.376L9.06 9.055c-.118-.063-.258-.094-.408-.094-.226 0-.43.083-.592.219l-1.291-.72c.01-.053.022-.105.022-.168 0-.49-.42-.898-.926-.898-.505 0-.925.407-.925.898 0 .084.022.167.043.25l-1.377.972c-.15-.104-.333-.157-.527-.157-.506 0-.925.408-.925.899 0 .49.42.898.925.898.506 0 .925-.407.925-.898 0-.084-.021-.167-.043-.251l1.388-.971c.15.104.333.156.527.156.226 0 .43-.083.592-.219l1.29.72c-.01.053-.02.105-.02.168 0 .49.419.898.924.898.506 0 .926-.407.926-.898 0-.136-.033-.261-.087-.376l1.55-1.473c.118.063.258.094.408.094.506 0 .926-.407.926-.898 0-.491-.43-.898-.936-.898z" transform="translate(-277 -1434) translate(102 978) translate(175 454)"/>
                </g>
            </g>
        </g>
    </g>
</svg>
