<svg xmlns="http://www.w3.org/2000/svg" width="14" height="11" viewBox="0 0 14 11">
    <g fill="none" fill-rule="evenodd">
        <g fill="#2C3E50" fill-rule="nonzero">
            <g>
                <g>
                    <path d="M11.783 8.18c-1.41-1.462-3.426-2.23-5.994-2.283V3.29c0-.117-.07-.223-.179-.267-.108-.044-.232-.02-.315.062l-5.21 5.21c-.113.114-.113.297 0 .41l5.21 5.21c.083.084.208.11.316.063.108-.044.179-.15.179-.267v-2.603c5.817.084 7.553 2.73 7.57 2.755.053.087.147.137.246.137.024 0 .049-.003.074-.01.123-.032.21-.141.215-.27.004-.13.09-3.255-2.112-5.54z" transform="translate(-393 -2052) translate(330 1762) translate(63 287)"/>
                </g>
            </g>
        </g>
    </g>
</svg>
