<svg xmlns="http://www.w3.org/2000/svg" width="18" height="21" viewBox="0 0 18 21">
    <path fill="#1B80C9" d="M7.09 2.888c-2.822.726-4.908 3.288-4.908 6.339v4.363c0 .402-.327.728-.727.728-.803 0-1.455.653-1.455 1.455 0 .803.652 1.454 1.458 1.454h14.538c.806 0 1.459-.653 1.459-1.454 0-.804-.655-1.455-1.456-1.455-.401 0-.726-.323-.726-.728V9.227c0-3.05-2.086-5.613-4.91-6.339v-.751C10.364 1.23 9.632.5 8.728.5c-.902 0-1.636.733-1.636 1.637v.75zm-.908 15.067h5.09c0 1.405-1.139 2.545-2.545 2.545s-2.545-1.14-2.545-2.545z"/>
</svg>
