<svg height="11" width="11" xmlns="http://www.w3.org/2000/svg"><path d="m5.787 3.55a.73.73 0 0 0 -.487.177 1.51 1.51 0 0 0 -.353.453c-.097.181-.17.384-.22.604s-.077.433-.077.636c0 .101.01.209.029.325a.91.91 0 0 0 .116.319.746.746 0 0 0 .226.24.649.649 0 0 0 .37.096.84.84 0 0 0 .533-.171c.147-.114.267-.258.36-.433.093-.173.16-.364.203-.566.042-.203.063-.391.063-.56 0-.136-.011-.269-.034-.402a1.142 1.142 0 0 0 -.122-.357.725.725 0 0 0 -.238-.26.64.64 0 0 0 -.369-.101zm3.719 4.793c.16.172.16.45-.016.606-.439.388-.94.681-1.502.88a6.54 6.54 0 0 1 -2.208.371c-.74 0-1.414-.117-2.02-.352a4.524 4.524 0 0 1 -1.555-.978 4.349 4.349 0 0 1 -1-1.5 5.014 5.014 0 0 1 -.355-1.91c0-.68.13-1.31.388-1.889a4.715 4.715 0 0 1 1.058-1.508c.448-.426.97-.759 1.57-1.003a5.093 5.093 0 0 1 1.914-.36 5.74 5.74 0 0 1 1.703.255c.551.17 1.04.426 1.465.765.427.341.766.766 1.02 1.277.255.51.382 1.11.382 1.8 0 .51-.07.963-.212 1.353-.142.392-.33.719-.568.984a2.31 2.31 0 0 1 -.812.593 2.403 2.403 0 0 1 -.961.198c-.344 0-.62-.081-.827-.242a.75.75 0 0 1 -.31-.613h-.063c-.13.204-.327.399-.594.581s-.594.276-.982.276c-.585 0-1.037-.191-1.355-.575s-.477-.88-.477-1.495a3.22 3.22 0 0 1 .695-1.993 2.63 2.63 0 0 1 .8-.658c.31-.165.653-.248 1.033-.248.326 0 .602.068.827.204.222.136.369.303.439.498h.012l.02-.095a.54.54 0 0 1 .508-.416h.302c.234 0 .385.186.336.415l-.42 2c-.016.12-.04.25-.07.397-.029.144-.044.28-.044.41a.72.72 0 0 0 .085.364c.055.098.166.147.329.147.335 0 .613-.179.833-.537.219-.358.329-.838.329-1.442 0-.51-.087-.965-.259-1.36a2.784 2.784 0 0 0 -.717-.996 3.072 3.072 0 0 0 -1.09-.606 4.485 4.485 0 0 0 -1.38-.204c-.543 0-1.04.095-1.49.286-.452.191-.838.456-1.156.791a3.598 3.598 0 0 0 -.743 1.188 4.001 4.001 0 0 0 -.267 1.474c0 .562.094 1.068.278 1.52.185.452.445.836.78 1.156s.736.564 1.2.734c.465.17.978.254 1.536.254.698 0 1.298-.11 1.8-.333.378-.166.733-.38 1.066-.644a.451.451 0 0 1 .61.035z" fill="#fff"/></svg>