<?xml version="1.0" encoding="UTF-8"?>
<svg width="25px" height="20px" viewBox="0 0 25 20" version="1.1" xmlns="http://www.w3.org/2000/svg" xmlns:xlink="http://www.w3.org/1999/xlink">
    <!-- Generator: Sketch 64 (93537) - https://sketch.com -->
    <title>noun_Log Out_7237</title>
    <desc>Created with Sketch.</desc>
    <g id="Notifications" stroke="none" stroke-width="1" fill="none" fill-rule="evenodd">
        <g id="02b_Notifications_UI_Mobile" transform="translate(-266.000000, -84.000000)" fill="#2C3E50" fill-rule="nonzero">
            <g id="Group-14" transform="translate(0.000000, 53.000000)">
                <g id="noun_Log-Out_7237" transform="translate(278.427536, 41.000000) scale(-1, 1) translate(-278.427536, -41.000000) translate(265.927536, 31.000000)">
                    <path d="M24.7826087,1.69333333 C24.7826087,2.52177778 23.9066667,3.19333333 22.826087,3.19333333 L10.3623188,3.19333333 C9.28173913,3.19333333 8.4057971,2.52177778 8.4057971,1.69333333 L8.4057971,1.69333333 C8.4057971,0.864888889 9.28173913,0.193333333 10.3623188,0.193333333 L22.826087,0.193333333 C23.9066667,0.193333333 24.7826087,0.864888889 24.7826087,1.69333333 L24.7826087,1.69333333 Z" id="Path"></path>
                    <path d="M24.7826087,18.5 C24.7826087,19.3286667 23.9066667,20 22.826087,20 L10.3623188,20 C9.28173913,20 8.4057971,19.3286667 8.4057971,18.5 L8.4057971,18.5 C8.4057971,17.6713333 9.28173913,17 10.3623188,17 L22.826087,17 C23.9066667,17 24.7826087,17.6713333 24.7826087,18.5 L24.7826087,18.5 Z" id="Path"></path>
                    <path d="M23.4275362,19.8066667 C22.5988696,19.8066667 21.9275362,18.9307246 21.9275362,17.8501449 L21.9275362,2.48782609 C21.9275362,1.40724638 22.5988696,0.531304348 23.4275362,0.531304348 L23.4275362,0.531304348 C24.2562029,0.531304348 24.9275362,1.40724638 24.9275362,2.48782609 L24.9275362,17.8501449 C24.9275362,18.9307246 24.2562029,19.8066667 23.4275362,19.8066667 L23.4275362,19.8066667 Z" id="Path"></path>
                    <path d="M0.56115942,11.0463768 L4.92463768,15.4098551 C5.53246377,16.0176812 6.51797101,16.0176812 7.1257971,15.4098551 C7.73362319,14.802029 7.73362319,13.8165217 7.1257971,13.2086957 L5.42231884,11.5052174 L12.9814493,11.5052174 C13.8414493,11.5052174 14.5382609,10.8084058 14.5382609,9.94898551 C14.5382609,9.08927536 13.8414493,8.39275362 12.9814493,8.39275362 L5.41971014,8.39275362 L7.12463768,6.68985507 C7.73304348,6.08231884 7.73362319,5.09710145 7.12608696,4.48869565 C6.82202899,4.18434783 6.42347826,4.03217391 6.02492754,4.03217391 C5.62666667,4.03217391 5.22869565,4.18376812 4.92492754,4.48724638 L0.56173913,8.84492754 C0.269565217,9.13681159 0.105507246,9.53275362 0.105217009,9.94550725 C0.104927536,10.3585507 0.269275362,10.7547826 0.56115942,11.0463768 Z" id="Path"></path>
                </g>
            </g>
        </g>
    </g>
</svg>