<svg xmlns="http://www.w3.org/2000/svg" width="21" height="18" viewBox="0 0 21 18">
    <path fill="#2C3E50" d="M6.833 0l3.116.835c-.756.857-1.217 1.98-1.217 3.21 0 .935.268 1.843.775 2.629l.518.892c.082.178.176.349.282.511l2.78 4.79V18l-6.254-1.676V0zm12.551.202c.417-.112.755.148.755.58v14.76c0 .432-.338.872-.755.984l-4.525 1.272-.755.202v-5.109l2.899-5.012c.004-.022.016-.047.029-.071l.783-1.354c.023-.04.044-.082.06-.124.376-.702.573-1.49.573-2.284 0-1.23-.46-2.352-1.215-3.208L17.7.712zM5.816 0v16.324l-1.954.524-3.107.95c-.417.111-.755-.148-.755-.58V2.458c0-.432.338-.873.755-.985L5.062.203 5.816 0zm7.774.126c2.165 0 3.92 1.755 3.92 3.92 0 .706-.19 1.367-.517 1.939l.01-.001-3.4 5.877v-.005.005l-3.296-5.679c-.401-.614-.636-1.347-.636-2.137 0-2.164 1.754-3.92 3.92-3.92zm-.012 2.38c-.971 0-1.757.787-1.757 1.758 0 .97.786 1.758 1.757 1.758.971 0 1.758-.788 1.758-1.758s-.787-1.758-1.758-1.758z"/>
</svg>
