<svg xmlns="http://www.w3.org/2000/svg" width="14" height="14" viewBox="0 0 14 14">
    <g fill="none" fill-rule="evenodd">
        <g>
            <g>
                <g transform="translate(-1291 -379) translate(1085 375) translate(206 4)">
                    <circle cx="7" cy="7" r="7" fill="#6A6D71"/>
                    <path fill="#FFF" d="M8.421 10.566H5.587c-.186 0-.337-.175-.337-.392 0-.216.15-.391.337-.391l.542-.097V7.061l-.542-.101c-.186 0-.337-.176-.337-.392 0-.216.15-.392.337-.392h2.2c.067 0 .089-.028.099-.051-.003.013-.007.025-.007.061v3.5l.542.097c.186 0 .338.175.338.392 0 .216-.152.391-.338.391zM6.136 3.503h.858c.006 0 .011-.003.017-.003l.018.003h.857v.823c.001.02.01.035.01.053 0 .02-.009.035-.01.054v.82H7.04c-.01.001-.019.007-.029.007-.01 0-.019-.006-.029-.006h-.846v-.822c-.001-.019-.011-.033-.011-.053 0-.018.01-.034.011-.052v-.824z"/>
                </g>
            </g>
        </g>
    </g>
</svg>
