<?xml version="1.0" encoding="UTF-8"?>
<svg width="16px" height="16px" viewBox="0 0 16 16" version="1.1" xmlns="http://www.w3.org/2000/svg" xmlns:xlink="http://www.w3.org/1999/xlink">
    <title>edit copy</title>
    <g id="Revised-2" stroke="none" stroke-width="1" fill="none" fill-rule="evenodd">
        <g id="KS-Stations-Page-Revised2-1.11-Event-&amp;-Comment-Copy" transform="translate(-407.000000, -2939.000000)">
            <g id="Group-5" transform="translate(332.000000, 2667.000000)">
                <g id="Group-12" transform="translate(0.000000, 167.000000)">
                    <g id="edit-copy" transform="translate(76.000000, 105.454545)">
                        <path d="M12.7665088,6.99315053 L13.4962902,6.99315053 C13.5128761,6.99315053 13.5253156,7.00558998 13.5273888,7.02217592 C13.5294621,7.06571401 13.5336086,7.10717886 13.5336086,7.14864371 C13.5356818,8.93577872 13.537755,10.7229137 13.5336086,12.512122 C13.5336086,13.5259376 12.8473653,14.3427951 11.8522089,14.5210939 C11.7278144,14.5438996 11.5972001,14.5438996 11.4686591,14.5438996 C8.3422094,14.5459729 5.21575975,14.5459729 2.0893101,14.5438996 C0.936587287,14.5438996 0.00155493186,13.6088673 0.00155493186,12.4582177 C-0.000518310618,9.32347507 -0.000518310618,6.19080569 0.00155493186,3.05813631 C0.00155493186,1.86394865 0.849511104,1.01184599 2.03955228,1.00977275 C3.8266873,1.00562626 5.61382231,1.0076995 7.40303056,1.0076995 L7.52327863,1.0076995 C7.53986457,1.0076995 7.55230402,1.0222122 7.55230402,1.03879814 L7.55230402,1.77687246 C7.55230402,1.7934584 7.53986457,1.8079711 7.52120538,1.8079711 L7.34705302,1.8079711 C5.57028422,1.8079711 3.79558866,1.80589786 2.01881986,1.81004434 C1.42379927,1.81004434 0.961466197,2.16042232 0.830851921,2.70361185 C0.801826527,2.82593315 0.797680042,2.95862067 0.797680042,3.08508846 C0.795606799,6.20531839 0.795606799,9.32554831 0.795606799,12.4457782 C0.795606799,13.2543428 1.29733148,13.7539942 2.11004253,13.7539942 C5.21161327,13.7539942 8.31318401,13.743628 11.416828,13.760214 C12.2710039,13.7643604 12.7540694,13.1050693 12.7437032,12.435412 C12.7188243,10.6959616 12.7354102,8.95443791 12.7354102,7.21291423 L12.7354102,7.02424916 C12.7354102,7.00766322 12.7499229,6.99315053 12.7665088,6.99315053" id="Fill-1" fill="#000000"></path>
                        <path d="M12.7665088,6.99315053 L13.4962902,6.99315053 C13.5128761,6.99315053 13.5253156,7.00558998 13.5273888,7.02217592 C13.5294621,7.06571401 13.5336086,7.10717886 13.5336086,7.14864371 C13.5356818,8.93577872 13.537755,10.7229137 13.5336086,12.512122 C13.5336086,13.5259376 12.8473653,14.3427951 11.8522089,14.5210939 C11.7278144,14.5438996 11.5972001,14.5438996 11.4686591,14.5438996 C8.3422094,14.5459729 5.21575975,14.5459729 2.0893101,14.5438996 C0.936587287,14.5438996 0.00155493186,13.6088673 0.00155493186,12.4582177 C-0.000518310618,9.32347507 -0.000518310618,6.19080569 0.00155493186,3.05813631 C0.00155493186,1.86394865 0.849511104,1.01184599 2.03955228,1.00977275 C3.8266873,1.00562626 5.61382231,1.0076995 7.40303056,1.0076995 L7.52327863,1.0076995 C7.53986457,1.0076995 7.55230402,1.0222122 7.55230402,1.03879814 L7.55230402,1.77687246 C7.55230402,1.7934584 7.53986457,1.8079711 7.52120538,1.8079711 L7.34705302,1.8079711 C5.57028422,1.8079711 3.79558866,1.80589786 2.01881986,1.81004434 C1.42379927,1.81004434 0.961466197,2.16042232 0.830851921,2.70361185 C0.801826527,2.82593315 0.797680042,2.95862067 0.797680042,3.08508846 C0.795606799,6.20531839 0.795606799,9.32554831 0.795606799,12.4457782 C0.795606799,13.2543428 1.29733148,13.7539942 2.11004253,13.7539942 C5.21161327,13.7539942 8.31318401,13.743628 11.416828,13.760214 C12.2710039,13.7643604 12.7540694,13.1050693 12.7437032,12.435412 C12.7188243,10.6959616 12.7354102,8.95443791 12.7354102,7.21291423 L12.7354102,7.02424916 C12.7354102,7.00766322 12.7499229,6.99315053 12.7665088,6.99315053 Z" id="Stroke-3" stroke="#2C3E50" stroke-width="0.25" fill="#2C3E50"></path>
                        <path d="M11.7048014,1.50154586 C12.1360358,1.93070705 12.565197,2.36194149 13.0109441,2.80768862 C13.0503357,2.84500698 13.052409,2.9092775 13.0150906,2.94866911 C12.9819187,2.98598747 12.9487469,3.02123259 12.9135017,3.05440447 C11.1222202,4.84983246 7.92528034,8.04677235 6.12985236,9.8359806 C6.03862969,9.92513003 5.91008866,9.99562028 5.78776735,10.0287922 C5.28811591,10.1656262 4.78224475,10.2858742 4.28052007,10.4102688 C4.21624956,10.4247815 4.15197904,10.4351477 4.05660989,10.4538069 C4.2183228,9.80695521 4.3696695,9.1912022 4.52723593,8.57544918 C4.53967538,8.5277646 4.58321347,8.48629975 4.6184586,8.45105463 C6.45327819,6.6141618 9.69582941,3.37161057 11.5658941,1.5036191 C11.6032125,1.46630074 11.6654098,1.4642275 11.7048014,1.50154586 L11.7048014,1.50154586 Z M13.813289,2.11315239 C13.3405897,1.64667283 12.8678904,1.17397355 12.3868981,0.690908054 L11.7296803,0.0295437052 C11.6902887,-0.00984790175 11.6260182,-0.00984790175 11.5866265,0.0295437052 C9.42008816,2.19815533 5.90801541,5.70815484 3.77464891,7.84981432 C3.67306003,7.9514032 3.60049654,8.07994423 3.56317818,8.21885148 C3.32682854,9.12485844 3.10291835,10.0350119 2.87693492,10.9430921 C2.74839388,11.4696957 3.0469408,11.7765356 3.56732466,11.6479945 C4.47333162,11.4261576 5.37726534,11.2022474 6.27912582,10.9658978 C6.41181334,10.9327259 6.55279382,10.8622356 6.64816298,10.7668665 C8.79604218,8.625207 12.3164079,5.10898777 14.4870928,2.93000993 C14.5264844,2.89061832 14.5264844,2.82842104 14.4870928,2.78902944 L13.813289,2.11315239 Z" id="Fill-5" fill="#2C3E50"></path>
                        <path d="M10.8014815,4.14181201 C10.4708702,3.81120075 9.97495334,3.31528387 9.31373083,2.65406135 C9.21421519,2.55454571 9.21421519,2.39075956 9.31373083,2.29124392 L9.82167523,1.78329951 C9.92119087,1.68378387 10.084977,1.68378387 10.1844927,1.78329951 L12.7366541,4.335461 C12.8361698,4.43497664 12.8361698,4.59876279 12.7366541,4.69827843 L12.230783,5.20622284 C12.1291941,5.30573848 11.9654079,5.30573848 11.8658923,5.20622284 C11.3928208,4.73315136 11.0380172,4.37834775 10.8014815,4.14181201 Z" id="Fill-7" fill="#2C3E50"></path>
                    </g>
                </g>
            </g>
        </g>
    </g>
</svg>