<?xml version="1.0" encoding="UTF-8" standalone="no"?><!DOCTYPE svg PUBLIC "-//W3C//DTD SVG 1.1//EN" "http://www.w3.org/Graphics/SVG/1.1/DTD/svg11.dtd"><svg width="100%" height="100%" viewBox="0 0 2101 1587" version="1.1" xmlns="http://www.w3.org/2000/svg" xmlns:xlink="http://www.w3.org/1999/xlink" xml:space="preserve" xmlns:serif="http://www.serif.com/" style="fill:#fff;fill-rule:evenodd;clip-rule:evenodd;stroke-linejoin:round;stroke-miterlimit:2;"><path d="M140.008,0c-76.758,0 -140.008,63.25 -140.008,140.008l0,1306.67c0,76.758 63.25,140.008 140.008,140.008l1820,0c76.759,0 140.009,-63.25 140.009,-140.008l-0,-1306.67c-0,-76.758 -63.25,-140.008 -140.009,-140.008l-1820,-0Zm535.917,722.588l689.792,770.75l-1225.75,-0c-26.66,-0 -46.663,-20.004 -46.663,-46.663l0,-98.437l582.621,-625.651Zm886.667,185.938l444.041,485.625l0,52.508c0,26.66 -20.003,46.663 -46.662,46.663l-468.833,-0l-233.334,-261.034l304.788,-323.762Zm-1422.58,-815.2l1820,-0c26.66,-0 46.663,20.003 46.663,46.662l-0,1115.62l-409.067,-447.708c-9.424,-10.026 -23.454,-15.527 -37.191,-14.583c-11.783,0.651 -23.258,5.989 -31.347,14.583l-333.967,354.379l-483.416,-540.333c-10.32,-11.751 -26.84,-17.741 -42.284,-15.316c-10.286,1.677 -19.954,6.901 -26.986,14.583l-549.041,589.875l-0,-1071.12c-0,-26.66 20.003,-46.662 46.662,-46.662l-0.026,0.02Zm1073.33,233.333c-102.538,0 -186.671,84.129 -186.671,186.671c-0,102.542 84.129,186.671 186.671,186.671c102.541,-0 186.671,-84.129 186.671,-186.671c-0,-102.542 -84.13,-186.671 -186.671,-186.671Zm-0,93.325c52.1,0 93.325,41.227 93.325,93.325c-0,52.098 -41.227,93.325 -93.325,93.325c-52.098,0 -93.325,-41.227 -93.325,-93.325c-0,-52.098 41.227,-93.325 93.325,-93.325Z" style="fill-rule:nonzero;"/></svg>