<?xml version="1.0" standalone="no"?>
<!DOCTYPE svg PUBLIC "-//W3C//DTD SVG 20010904//EN"
 "http://www.w3.org/TR/2001/REC-SVG-20010904/DTD/svg10.dtd">
<svg version="1.0" xmlns="http://www.w3.org/2000/svg"
 width="512.000000pt" height="512.000000pt" viewBox="0 0 512.000000 512.000000"
 preserveAspectRatio="xMidYMid meet">

<g transform="translate(0.000000,512.000000) scale(0.100000,-0.100000)"
fill="#000000" stroke="none">
<path d="M3529 5105 c-178 -34 -337 -113 -479 -237 -154 -135 -553 -549 -603
-625 -175 -265 -214 -580 -106 -876 30 -83 97 -208 115 -214 5 -2 114 102 242
230 l233 233 2 94 c2 77 7 104 26 140 31 60 530 560 588 589 54 27 141 40 202
30 96 -15 133 -44 412 -326 299 -301 311 -319 311 -442 -1 -82 -21 -140 -72
-205 -66 -86 -491 -501 -545 -532 -44 -26 -61 -29 -145 -31 l-94 -2 -233 -233
c-128 -128 -232 -237 -230 -242 6 -18 131 -85 214 -115 294 -107 610 -69 876
105 101 67 644 611 712 713 211 321 218 725 18 1051 -36 58 -115 145 -352 383
-378 381 -444 429 -676 493 -115 32 -303 41 -416 19z"/>
<path d="M3515 3960 c-58 -29 -2339 -2312 -2360 -2362 -36 -88 -15 -131 142
-290 167 -168 217 -192 307 -148 59 28 2339 2311 2361 2362 36 88 15 131 -142
290 -167 168 -218 193 -308 148z"/>
<path d="M1275 2830 c-139 -21 -271 -73 -398 -156 -106 -70 -646 -612 -715
-718 -214 -329 -213 -748 1 -1069 80 -119 641 -675 747 -740 326 -200 730
-193 1051 18 102 68 646 611 713 712 174 266 212 582 105 876 -30 83 -97 208
-115 214 -5 2 -114 -102 -242 -230 l-233 -233 -2 -94 c-2 -77 -7 -103 -26
-140 -28 -53 -456 -490 -544 -556 -68 -50 -117 -66 -204 -66 -120 1 -146 19
-450 325 -300 303 -314 322 -315 441 0 86 16 135 66 203 66 88 503 516 556
544 37 19 63 24 140 26 l94 2 233 233 c128 128 232 237 230 242 -6 18 -131 85
-213 115 -150 54 -330 73 -479 51z"/>
</g>
</svg>
