<?xml version="1.0" standalone="no"?>
<!DOCTYPE svg PUBLIC "-//W3C//DTD SVG 20010904//EN"
 "http://www.w3.org/TR/2001/REC-SVG-20010904/DTD/svg10.dtd">
<svg version="1.0" xmlns="http://www.w3.org/2000/svg"
 width="284.000000pt" height="59.000000pt" viewBox="0 0 284.000000 59.000000"
 preserveAspectRatio="xMidYMid meet">

<g transform="translate(0.000000,59.000000) scale(0.100000,-0.100000)"
fill="#000000" stroke="none">
<path d="M225 581 c-84 -22 -154 -80 -196 -161 -34 -67 -33 -186 3 -255 31
-60 77 -104 138 -136 36 -18 61 -23 125 -23 64 0 89 5 125 23 61 32 107 76
138 136 35 68 37 188 4 252 -53 102 -139 161 -244 168 -35 2 -76 1 -93 -4z
m155 -27 c103 -30 190 -149 190 -259 0 -144 -132 -275 -277 -275 -105 0 -216
78 -253 178 -40 107 -18 205 65 289 78 78 166 99 275 67z"/>
<path d="M262 541 c-16 -10 -6 -38 13 -38 16 0 17 3 7 29 -4 11 -12 14 -20 9z"/>
<path d="M307 543 c-14 -13 -7 -43 11 -43 13 0 14 2 4 9 -17 11 -17 21 0 32 7
5 8 9 2 9 -6 0 -14 -3 -17 -7z"/>
<path d="M208 535 c-10 -11 4 -45 19 -45 9 0 13 8 11 22 -3 21 -19 34 -30 23z
m19 -27 c-3 -8 -6 -5 -6 6 -1 11 2 17 5 13 3 -3 4 -12 1 -19z"/>
<path d="M354 514 c-2 -28 -1 -28 15 4 9 17 9 22 -1 22 -7 0 -14 -12 -14 -26z"/>
<path d="M165 511 c-10 -17 15 -45 29 -31 7 7 5 15 -6 26 -11 11 -18 13 -23 5z
m25 -22 c0 -6 -4 -7 -10 -4 -5 3 -10 11 -10 16 0 6 5 7 10 4 6 -3 10 -11 10
-16z"/>
<path d="M125 481 c-8 -15 3 -31 21 -31 9 0 14 7 12 17 -4 20 -24 28 -33 14z
m25 -11 c0 -5 -2 -10 -4 -10 -3 0 -8 5 -11 10 -3 6 -1 10 4 10 6 0 11 -4 11
-10z"/>
<path d="M430 474 c-8 -10 -10 -15 -3 -11 6 4 13 2 15 -4 2 -7 10 -4 18 7 8
10 10 15 3 11 -6 -4 -13 -2 -15 4 -2 7 -10 4 -18 -7z"/>
<path d="M232 466 c-48 -17 -100 -72 -113 -119 -21 -81 9 -159 79 -208 50 -34
144 -34 193 0 46 31 66 60 81 114 36 136 -106 262 -240 213z m138 -18 c77 -39
114 -121 90 -201 -24 -80 -114 -138 -192 -123 -168 32 -199 257 -44 327 54 25
92 24 146 -3z"/>
<path d="M335 368 c-47 -70 -33 -128 30 -128 38 0 65 26 65 62 0 21 -51 108
-64 108 -2 0 -16 -19 -31 -42z m64 -14 c36 -61 24 -104 -31 -104 -18 0 -33 8
-43 24 -15 22 -15 27 1 58 35 69 44 72 73 22z"/>
<path d="M330 293 c0 -13 29 -38 35 -31 3 3 -4 13 -15 23 -11 10 -20 13 -20 8z"/>
<path d="M177 342 c-9 -10 -17 -29 -17 -42 0 -27 51 -111 64 -107 5 2 22 26
38 55 27 47 28 54 16 79 -17 36 -75 44 -101 15z m89 -17 c15 -23 14 -27 -8
-66 -12 -24 -28 -44 -34 -46 -16 -5 -54 58 -54 89 0 32 18 48 52 48 18 0 33
-8 44 -25z"/>
<path d="M205 310 c-8 -14 3 -30 21 -30 8 0 14 9 14 20 0 21 -24 28 -35 10z
m25 -10 c0 -5 -4 -10 -10 -10 -5 0 -10 5 -10 10 0 6 5 10 10 10 6 0 10 -4 10
-10z"/>
<path d="M471 441 c-9 -17 -8 -18 11 -13 13 3 17 7 10 10 -7 2 -10 8 -6 13 3
5 3 9 0 9 -3 0 -10 -9 -15 -19z"/>
<path d="M99 428 c15 -21 31 -23 31 -6 0 6 -3 8 -7 5 -3 -4 -13 -1 -22 6 -14
11 -14 10 -2 -5z"/>
<path d="M65 401 c-3 -6 4 -15 15 -21 20 -11 21 -10 10 9 -12 23 -16 25 -25
12z"/>
<path d="M485 399 c-4 -6 -5 -12 -2 -15 2 -3 7 2 10 11 7 17 1 20 -8 4z"/>
<path d="M53 293 c9 -2 23 -2 30 0 6 3 -1 5 -18 5 -16 0 -22 -2 -12 -5z"/>
<path d="M513 293 c9 -2 23 -2 30 0 6 3 -1 5 -18 5 -16 0 -22 -2 -12 -5z"/>
<path d="M770 295 l0 -185 30 0 30 0 0 85 0 85 70 0 c68 0 70 1 70 25 0 24 -2
25 -70 25 l-70 0 0 50 0 50 70 0 c68 0 70 1 70 25 l0 25 -100 0 -100 0 0 -185z"/>
<path d="M1020 295 l0 -185 25 0 25 0 0 185 0 185 -25 0 -25 0 0 -185z"/>
<path d="M1900 415 l0 -65 -42 6 c-115 15 -179 -135 -92 -216 21 -21 38 -25
100 -28 l74 -4 0 186 c0 179 -1 186 -20 186 -18 0 -20 -7 -20 -65z m-19 -105
c16 -9 19 -22 19 -85 l0 -75 -40 0 c-84 0 -119 83 -61 141 31 31 51 35 82 19z"/>
<path d="M2020 295 l0 -185 25 0 25 0 0 140 0 141 122 -141 c91 -104 128 -140
145 -140 l23 0 0 185 0 185 -25 0 -24 0 -3 -142 -3 -142 -123 142 c-79 91
-130 142 -143 142 -18 0 -19 -9 -19 -185z"/>
<path d="M2700 356 c-39 -41 -42 -46 -22 -46 21 0 22 -4 22 -80 0 -99 17 -123
83 -118 34 2 43 7 45 24 3 19 -2 21 -35 20 l-38 -1 -3 78 -3 77 36 0 c28 0 35
4 35 20 0 16 -7 20 -34 20 -30 0 -35 4 -38 26 -3 25 -4 24 -48 -20z"/>
<path d="M2482 345 c-55 -24 -79 -113 -47 -175 21 -41 53 -60 102 -60 62 0 93
15 93 44 0 24 -1 24 -27 10 -16 -7 -40 -14 -54 -14 -33 0 -79 35 -79 61 0 17
8 19 86 19 l86 0 -8 32 c-9 44 -29 73 -60 86 -32 15 -51 15 -92 -3z m88 -45
c32 -32 24 -40 -40 -40 -62 0 -69 5 -47 32 25 32 60 35 87 8z"/>
<path d="M1171 324 c-87 -73 -38 -214 75 -214 82 0 134 44 134 113 0 80 -50
127 -134 127 -33 0 -52 -6 -75 -26z m133 -35 c20 -16 26 -29 26 -59 0 -86
-117 -109 -150 -30 -33 79 55 143 124 89z"/>
<path d="M1471 325 c-35 -30 -55 -83 -46 -125 3 -16 22 -43 41 -60 28 -24 44
-30 80 -30 56 0 99 22 119 60 31 60 10 137 -45 165 -46 24 -113 19 -149 -10z
m133 -36 c19 -15 26 -30 26 -55 0 -74 -84 -111 -135 -59 -73 72 28 178 109
114z"/>
</g>
</svg>
