<?xml version="1.0" encoding="utf-8"?>
<!-- Generator: Adobe Illustrator 25.0.1, SVG Export Plug-In . SVG Version: 6.00 Build 0)  -->
<svg version="1.1" id="Layer_1" xmlns="http://www.w3.org/2000/svg" xmlns:xlink="http://www.w3.org/1999/xlink" x="0px" y="0px"
	 viewBox="0 0 59 59" style="enable-background:new 0 0 59 59;" xml:space="preserve">
<style type="text/css">
	.st0{fill:#042D36;}
</style>
<g>
	<path class="st0" d="M9.2,37.9l-2.1,0.8L7,38.4l1.2-1.2l-1.4,0.5l-0.1-0.3l2.1-0.8L8.9,37l-1.2,1.2l1.4-0.5L9.2,37.9z"/>
	<path class="st0" d="M8.4,39.6l1-1.3l0.2,0.3l-0.7,0.9l1.1,0l0.2,0.3l-1.6,0l-0.7,0.4l-0.1-0.3L8.4,39.6z"/>
	<path class="st0" d="M9.4,40.8c0.7-0.4,1.1-0.4,1.4,0.1c0.2,0.3,0.2,0.6-0.1,0.9l-0.3-0.2c0.2-0.2,0.3-0.3,0.1-0.5
		c-0.2-0.3-0.4-0.3-0.9,0.1c-0.6,0.3-0.7,0.5-0.5,0.8c0.1,0.2,0.2,0.2,0.5,0.1l0.1,0.3C9.2,42.4,9,42.4,8.8,42
		C8.5,41.5,8.7,41.2,9.4,40.8z"/>
	<path class="st0" d="M10,43.4c0.1-0.1,0.3-0.1,0.4,0.1c0.1,0.2,0.1,0.3,0,0.4C10.2,44,10.1,44,10,43.8C9.9,43.6,9.9,43.5,10,43.4z"
		/>
	<path class="st0" d="M11.7,44.2c0.7-0.6,1-0.6,1.4-0.2c0.3,0.3,0.3,0.6,0,1l-0.3-0.2c0.2-0.3,0.2-0.4,0.1-0.6
		c-0.2-0.3-0.5-0.2-0.9,0.2c-0.5,0.4-0.6,0.6-0.3,0.9c0.1,0.1,0.2,0.2,0.5,0.1l0.3-0.2L12,44.8l0.2-0.2l0.5,0.6l-0.5,0.5
		c-0.4,0.2-0.6,0.1-0.9-0.2C11,45.1,11.1,44.8,11.7,44.2z"/>
	<path class="st0" d="M13,45.8l0.2-0.2c0.5-0.5,0.9-0.6,1.3-0.2c0.4,0.4,0.3,0.7-0.2,1.3l-0.2,0.2c-0.5,0.5-0.9,0.6-1.3,0.2
		C12.5,46.7,12.5,46.3,13,45.8z M13.9,46.6l0.2-0.2c0.4-0.4,0.4-0.6,0.2-0.8c-0.2-0.2-0.4-0.2-0.8,0.3L13.3,46
		c-0.4,0.4-0.4,0.6-0.2,0.8C13.3,47.1,13.5,47,13.9,46.6z"/>
	<path class="st0" d="M15.3,46.2l0.3,0.2L14.9,48l1.4-1l0.3,0.2l-1.9,1.3l-0.2-0.2L15.3,46.2z"/>
	<path class="st0" d="M19.3,50.4L18.8,50l-0.3,0.6l-0.3-0.1l0.3-0.6l-0.6-0.3l0.1-0.3l0.6,0.3l0.3-0.6l0.3,0.1l-0.3,0.6l0.6,0.3
		L19.3,50.4z"/>
	<path class="st0" d="M23.5,50.6l-0.7,2.1l-0.3-0.1L22.3,51l-0.5,1.4l-0.3-0.1l0.7-2.1l0.3,0.1l0.2,1.7l0.5-1.4L23.5,50.6z"/>
	<path class="st0" d="M24.3,52.2l-0.4-1.5l0.4,0.1l0.3,1.1l0.7-0.9l0.4,0.1l-1,1.2l-0.2,0.8L24.1,53L24.3,52.2z"/>
	<path class="st0" d="M25.8,52.5l0.2-1.4l0.3,0l-0.2,1.4c-0.1,0.5,0,0.6,0.3,0.6c0.3,0,0.4-0.1,0.4-0.6l0.2-1.4l0.3,0l-0.2,1.4
		c-0.1,0.6-0.3,0.9-0.8,0.8C25.9,53.4,25.8,53.1,25.8,52.5z"/>
	<path class="st0" d="M28.3,53.4c0-0.2,0.1-0.3,0.3-0.3c0.2,0,0.3,0.1,0.3,0.3c0,0.2-0.1,0.3-0.3,0.3C28.4,53.6,28.3,53.6,28.3,53.4
		z"/>
	<path class="st0" d="M30.4,51.7l0,0.6l0.7,0l0,0.3l-0.7,0l0,0.7l1-0.1l0,0.3l-1.4,0.1L30,51.4l1.4-0.1l0,0.3L30.4,51.7z"/>
	<path class="st0" d="M33.5,52.2c0.1,0.8,0,1.1-0.6,1.2l-0.7,0.1l-0.3-2.2l0.7-0.1C33.2,51.1,33.4,51.4,33.5,52.2z M33.2,52.2
		c-0.1-0.6-0.2-0.8-0.5-0.7l-0.4,0.1l0.2,1.6l0.4-0.1C33.2,53,33.3,52.8,33.2,52.2z"/>
	<path class="st0" d="M34.2,52.3L33.9,51l0.3-0.1l0.3,1.3c0.1,0.5,0.2,0.6,0.5,0.5c0.3-0.1,0.3-0.2,0.2-0.7l-0.3-1.3l0.3-0.1
		l0.3,1.3c0.2,0.6,0,0.9-0.5,1C34.6,53.1,34.3,52.9,34.2,52.3z"/>
	<path class="st0" d="M39.5,50.4l-0.6,0.3l0.3,0.6l-0.3,0.1l-0.3-0.6L38,51l-0.1-0.3l0.6-0.3l-0.3-0.6l0.3-0.1l0.3,0.6l0.6-0.3
		L39.5,50.4z"/>
	<path class="st0" d="M41.8,49c-0.5-0.7-0.5-1.1,0-1.4c0.3-0.2,0.6-0.2,0.9,0.1L42.5,48c-0.3-0.2-0.4-0.2-0.5-0.1
		c-0.3,0.2-0.2,0.4,0.1,0.9c0.4,0.5,0.6,0.6,0.8,0.5c0.2-0.1,0.2-0.2,0.1-0.5l0.3-0.1c0.1,0.4,0.1,0.7-0.3,0.9
		C42.6,49.8,42.2,49.7,41.8,49z"/>
	<path class="st0" d="M43.6,48l-0.9-1.1l0.3-0.2l0.9,1.1c0.3,0.4,0.4,0.4,0.7,0.2s0.2-0.3-0.1-0.7l-0.9-1.1l0.3-0.2l0.9,1.1
		c0.4,0.5,0.4,0.8,0,1.1C44.4,48.6,44.1,48.5,43.6,48z"/>
	<path class="st0" d="M45.3,44.7l1.6,1.6l-0.3,0.2L45,45.9l1.1,1.1l-0.2,0.2l-1.6-1.6l0.3-0.2l1.6,0.6L45,44.9L45.3,44.7z"/>
	<path class="st0" d="M47.1,44.8l-1.5-0.4l0.2-0.3l1.1,0.3l-0.4-1l0.2-0.3l0.6,1.5l0.6,0.5l-0.2,0.3L47.1,44.8z"/>
	<path class="st0" d="M48.8,43.6c-0.2-0.1-0.2-0.2-0.1-0.4c0.1-0.2,0.2-0.2,0.4-0.1c0.2,0.1,0.2,0.2,0.1,0.4
		C49.1,43.6,49,43.7,48.8,43.6z"/>
	<path class="st0" d="M48.5,40.9l0.5,0.3l0.3-0.6l0.3,0.2l-0.3,0.6l0.6,0.4l0.5-0.9l0.3,0.2L50,42.2l-1.9-1.1l0.7-1.2l0.3,0.2
		L48.5,40.9z"/>
	<path class="st0" d="M50.7,38.5c0.7,0.3,0.9,0.6,0.7,1.1l-0.3,0.7l-2-0.9l0.3-0.7C49.6,38.2,49.9,38.2,50.7,38.5z M50.5,38.8
		c-0.6-0.3-0.8-0.3-0.9,0l-0.2,0.4l1.5,0.7l0.2-0.4C51.2,39.3,51.1,39.1,50.5,38.8z"/>
	<path class="st0" d="M51.1,38l-1.3-0.5l0.1-0.3l1.3,0.5c0.4,0.2,0.6,0.1,0.7-0.1c0.1-0.3,0-0.4-0.4-0.5l-1.3-0.5l0.1-0.3l1.3,0.5
		c0.6,0.2,0.8,0.5,0.6,1C52.1,38.2,51.8,38.3,51.1,38z"/>
</g>
<g>
	<path class="st0" d="M10.4,21.1l-1.5-0.7l0.5-1.1c0,0,0-0.1,0-0.1c0,0,0-0.1-0.1-0.1l-0.6-0.3c-0.1,0-0.1,0-0.2,0.1L8.1,20
		l-1.1-0.5l0.8-1.8c0,0,0-0.1,0-0.1c0,0,0-0.1-0.1-0.1l-0.6-0.3c-0.1,0-0.1,0-0.2,0.1l-1.2,2.5c0,0,0,0.1,0,0.1C6,20,6,20,6,20
		l4,1.9c0,0,0,0,0.1,0c0,0,0.1,0,0.1-0.1l0.3-0.6C10.5,21.2,10.5,21.2,10.4,21.1C10.5,21.1,10.5,21.1,10.4,21.1z"/>
	<path class="st0" d="M13.2,15.4c-0.1,0-0.1,0-0.2,0l-1,1.4l-3-2.2c0,0-0.1,0-0.1,0c0,0-0.1,0-0.1,0l-0.4,0.5c0,0.1,0,0.1,0,0.2
		l3.6,2.7c0,0,0,0,0.1,0c0,0,0.1,0,0.1-0.1l1.5-2c0,0,0-0.1,0-0.1c0,0,0-0.1,0-0.1L13.2,15.4z"/>
	<path class="st0" d="M15.6,11.3L15.3,11c-0.9-1-1.7-1.5-2.7-0.6c-0.5,0.4-0.6,0.8-0.6,1.2c0,0.4,0.3,0.9,0.8,1.5l0.3,0.3v0
		c0.6,0.6,1.1,1.1,1.6,1.1c0.3,0,0.7-0.1,1-0.5c0.5-0.4,0.6-0.8,0.6-1.2C16.4,12.4,16.2,11.9,15.6,11.3z M15.3,13.4
		c-0.2,0.2-0.4,0.2-0.6,0.2c-0.2-0.1-0.5-0.3-0.8-0.7l-0.3-0.3c-0.4-0.4-0.6-0.7-0.6-0.9c0-0.2,0-0.4,0.2-0.5
		c0.2-0.1,0.3-0.2,0.4-0.2c0.1,0,0.1,0,0.2,0c0.2,0.1,0.5,0.3,0.8,0.7l0.3,0.3c0,0,0,0,0,0C15.7,12.8,15.7,13.1,15.3,13.4z"/>
	<path class="st0" d="M19.4,8.5c-0.4-0.7-0.8-1.1-1.1-1.3c-0.4-0.2-0.8-0.1-1.4,0.2C16.3,7.7,16.1,8,16,8.5c0,0.4,0.1,0.9,0.5,1.6
		l0.2,0.4c0.4,0.7,0.8,1.1,1.1,1.3c0.2,0.1,0.3,0.1,0.5,0.1c0.3,0,0.6-0.1,0.9-0.3c0.5-0.3,0.8-0.7,0.8-1.1c0-0.4-0.1-0.9-0.5-1.6
		L19.4,8.5z M19.2,10.4c0,0.2-0.1,0.3-0.3,0.5c-0.2,0.1-0.4,0.2-0.6,0c-0.2-0.1-0.4-0.4-0.7-0.9l-0.2-0.4c-0.6-1-0.5-1.3-0.1-1.5
		C17.4,8,17.5,8,17.6,8c0.3,0,0.5,0.2,0.9,0.9l0.2,0.4C19.1,9.8,19.2,10.1,19.2,10.4z"/>
	<path class="st0" d="M21.7,5.3l-1.4,0.5c-0.1,0-0.1,0.1-0.1,0.2l1.4,4.2c0,0,0,0.1,0.1,0.1c0,0,0,0,0.1,0c0,0,0,0,0,0l1.4-0.5
		c0.6-0.2,0.9-0.5,1-0.9c0.1-0.4,0-1-0.2-1.8C23.5,5.7,23,4.9,21.7,5.3z M22.2,9.2l-0.9-2.8L22,6.1c0.3-0.1,0.4-0.1,0.6,0.1
		c0.2,0.2,0.3,0.5,0.5,1.1c0.4,1.2,0.3,1.5-0.2,1.6L22.2,9.2z"/>
	<path class="st0" d="M28.2,4.1C28.1,4.1,28.1,4.1,28.2,4.1l-0.8,0c-0.1,0-0.1,0.1-0.1,0.1l0.3,2.4l-1.4-2.4c0,0-0.1-0.1-0.1-0.1
		l-0.7,0.1c-0.1,0-0.1,0.1-0.1,0.1L25.7,9c0,0,0,0.1,0,0.1c0,0,0.1,0,0.1,0c0,0,0,0,0,0L26.5,9c0.1,0,0.1-0.1,0.1-0.1l-0.3-2.4
		l1.4,2.4c0,0,0.1,0.1,0.1,0.1l0.7-0.1c0.1,0,0.1-0.1,0.1-0.1L28.2,4.1C28.2,4.2,28.2,4.1,28.2,4.1z"/>
	<path class="st0" d="M33.3,4.3l-2.7-0.3c0,0-0.1,0-0.1,0c0,0,0,0.1,0,0.1L30,8.6c0,0.1,0,0.1,0.1,0.1L32.9,9c0,0,0,0,0,0
		C32.9,9,33,9,33,8.9l0.1-0.6c0-0.1,0-0.1-0.1-0.1L31,8l0.1-1.2l1.2,0.1c0.1,0,0.1,0,0.1-0.1l0.1-0.6c0,0,0-0.1,0-0.1
		c0,0-0.1,0-0.1,0l-1.2-0.1L31.3,5l2,0.2c0,0,0.1,0,0.1,0c0,0,0-0.1,0-0.1l0.1-0.6C33.4,4.4,33.4,4.4,33.3,4.3
		C33.4,4.4,33.3,4.3,33.3,4.3z"/>
	<path class="st0" d="M38.6,5.7l-3.2-1c-0.1,0-0.1,0-0.2,0.1L35,5.4c0,0.1,0,0.1,0.1,0.2l1.2,0.4l-1.1,3.6c0,0.1,0,0.1,0.1,0.2
		l0.6,0.2c0,0,0,0,0,0c0,0,0,0,0.1,0c0,0,0.1,0,0.1-0.1l1.1-3.6l1.2,0.4c0.1,0,0.1,0,0.2-0.1l0.2-0.6C38.6,5.8,38.6,5.8,38.6,5.7
		C38.6,5.7,38.6,5.7,38.6,5.7z"/>
	<path class="st0" d="M40,10.3c-0.4-0.2-0.7-0.1-0.9,0.2v0c-0.2,0.4-0.1,0.7,0.3,0.9c0.2,0.1,0.3,0.1,0.4,0.1c0,0,0.1,0,0.1,0
		c0.2,0,0.3-0.2,0.4-0.4c0.1-0.2,0.1-0.4,0.1-0.5C40.4,10.5,40.2,10.4,40,10.3z"/>
	<path class="st0" d="M47,11.1l-0.5-0.4c-0.1,0-0.1,0-0.2,0l-1.6,1.9l0.7-2.6c0,0,0-0.1,0-0.1l-0.5-0.5c-0.1,0-0.1,0-0.2,0l-2.9,3.4
		c0,0.1,0,0.1,0,0.2l0.5,0.4c0.1,0,0.1,0,0.2,0l1.6-1.9l-0.7,2.6c0,0,0,0.1,0,0.1l0.5,0.5c0,0,0.1,0,0.1,0c0,0,0.1,0,0.1,0l2.9-3.4
		C47.1,11.2,47.1,11.1,47,11.1z"/>
	<path class="st0" d="M50.6,15.4c0,0,0-0.1,0-0.1l-0.4-0.6c0,0-0.1-0.1-0.1,0l-2,0.4l0.9-1.8c0,0,0-0.1,0-0.1l-0.4-0.6
		c0,0-0.1-0.1-0.1,0c0,0-0.1,0-0.1,0.1l-1.4,2.8l-1.2,1c-0.1,0-0.1,0.1,0,0.2l0.4,0.5c0,0,0.1,0,0.1,0c0,0,0,0,0,0c0,0,0.1,0,0.1,0
		l1.2-1L50.6,15.4C50.6,15.5,50.6,15.4,50.6,15.4z"/>
	<path class="st0" d="M52.4,18.3c-0.3-0.6-0.6-0.9-1.1-0.9c-0.4-0.1-1,0.1-1.8,0.5c-0.8,0.4-1.3,0.7-1.5,1.1c-0.2,0.4-0.2,0.9,0,1.4
		c0.3,0.6,0.7,0.9,1.2,0.9c0.2,0,0.4,0,0.6-0.1c0.1,0,0.1-0.1,0.1-0.1l-0.1-0.7c0,0,0-0.1-0.1-0.1c0,0-0.1,0-0.1,0
		c-0.6,0.1-0.7,0.1-0.9-0.3c-0.1-0.3-0.1-0.5,0-0.6c0.2-0.2,0.5-0.4,1.1-0.7c0.6-0.3,1-0.4,1.2-0.4c0.2,0,0.4,0.1,0.5,0.4
		c0.2,0.3,0.2,0.4-0.3,0.9c0,0,0,0.1,0,0.1c0,0,0,0.1,0,0.1l0.5,0.5c0,0,0.1,0.1,0.2,0C52.6,19.6,52.8,19.1,52.4,18.3z"/>
</g>
<path class="st0" d="M29.5,2c7.3,0,14.2,2.9,19.4,8c5.2,5.2,8,12.1,8,19.4s-2.9,14.2-8,19.4c-5.2,5.2-12.1,8-19.4,8
	s-14.2-2.9-19.4-8c-5.2-5.2-8-12.1-8-19.4s2.9-14.2,8-19.4C15.3,4.9,22.2,2,29.5,2 M29.5,0C13.2,0,0,13.2,0,29.5S13.2,59,29.5,59
	S59,45.8,59,29.5S45.8,0,29.5,0L29.5,0z"/>
<path class="st0" d="M29.5,12.1c9.6,0,17.4,7.8,17.4,17.4s-7.8,17.4-17.4,17.4s-17.4-7.8-17.4-17.4S19.9,12.1,29.5,12.1 M29.5,11.1
	c-10.2,0-18.4,8.2-18.4,18.4s8.2,18.4,18.4,18.4s18.4-8.2,18.4-18.4S39.7,11.1,29.5,11.1L29.5,11.1z"/>
<g>
	<path class="st0" d="M53.9,29.3c0.1,0.1,0.3,0.2,0.5,0.2c0.3,0,0.4-0.2,0.3-0.4h0.6c0.1,0.5-0.3,0.9-0.9,0.9
		c-0.3,0-0.6-0.1-0.8-0.3c-0.1-0.1-0.2-0.2-0.5-0.2c-0.3,0-0.5,0.6-1.1,0.6c-0.4,0-0.6-0.1-0.8-0.3c-0.1-0.1-0.3-0.2-0.5-0.2
		c-0.3,0-0.4,0.2-0.3,0.4h-0.6c-0.1-0.5,0.3-0.9,0.9-0.9c0.3,0,0.6,0.1,0.8,0.3c0.1,0.1,0.2,0.2,0.5,0.2c0.3,0,0.5-0.6,1.1-0.6
		C53.4,28.9,53.7,29.1,53.9,29.3z"/>
</g>
<g>
	<path class="st0" d="M7.8,29.3c0.1,0.1,0.3,0.2,0.5,0.2c0.3,0,0.4-0.2,0.3-0.4h0.6C9.3,29.7,8.9,30,8.3,30c-0.3,0-0.6-0.1-0.8-0.3
		c-0.1-0.1-0.2-0.2-0.5-0.2c-0.3,0-0.5,0.6-1.1,0.6c-0.4,0-0.6-0.1-0.8-0.3c-0.1-0.1-0.3-0.2-0.5-0.2c-0.3,0-0.4,0.2-0.3,0.4H3.7
		c-0.1-0.5,0.3-0.9,0.9-0.9c0.3,0,0.6,0.1,0.8,0.3c0.1,0.1,0.2,0.2,0.5,0.2c0.3,0,0.5-0.6,1.1-0.6C7.4,28.9,7.6,29.1,7.8,29.3z"/>
</g>
<g>
	<path class="st0" d="M22.2,23.5c3,0,5.5,2.5,5.5,5.5c0,2.1-3.1,6.7-5.5,9.8c-2.4-3-5.5-7.6-5.5-9.8C16.7,25.9,19.1,23.5,22.2,23.5
		 M22.2,22.4c-3.6,0-6.5,2.9-6.5,6.5c0,3.6,6.5,11.4,6.5,11.4s6.5-7.8,6.5-11.4C28.7,25.4,25.8,22.4,22.2,22.4L22.2,22.4z"/>
	<path class="st0" d="M36.8,19.2c2.4,3,5.5,7.7,5.5,9.8c0,3-2.5,5.5-5.5,5.5c-3,0-5.5-2.5-5.5-5.5C31.3,26.8,34.4,22.2,36.8,19.2
		 M36.8,17.6c0,0-6.5,7.8-6.5,11.4c0,3.6,2.9,6.5,6.5,6.5c3.6,0,6.5-2.9,6.5-6.5C43.3,25.3,36.8,17.6,36.8,17.6L36.8,17.6z"/>
	<path class="st0" d="M22.2,31.1c-1.2,0-2.1-1-2.1-2.1c0-1.2,1-2.1,2.1-2.1c1.2,0,2.1,1,2.1,2.1C24.3,30.1,23.3,31.1,22.2,31.1z
		 M22.2,27.8c-0.6,0-1.1,0.5-1.1,1.1s0.5,1.1,1.1,1.1c0.6,0,1.1-0.5,1.1-1.1S22.8,27.8,22.2,27.8z"/>
	<path class="st0" d="M37.2,33c-2.3,0-4.3-1.9-4.3-4.3h1c0,1.8,1.5,3.2,3.2,3.2V33z"/>
</g>
</svg>
