<?xml version="1.0" encoding="UTF-8"?>
<svg width="275px" height="59px" viewBox="0 0 275 59" version="1.1" xmlns="http://www.w3.org/2000/svg" xmlns:xlink="http://www.w3.org/1999/xlink">
    <!-- Generator: Sketch 60.1 (88133) - https://sketch.com -->
    <title>Shape Copy 7</title>
    <desc>Created with Sketch.</desc>
    <g id="Page-1" stroke="none" stroke-width="1" fill="none" fill-rule="evenodd">
        <g id="01_SurveyStyleGuide" transform="translate(-61.000000, -488.000000)" fill="#1B80C9" fill-rule="nonzero">
            <path d="M69.644802,491.658199 C67.1262376,494.164742 65.7648515,497.755196 65.7648515,502.632794 L65.7648515,503.513472 L61,503.513472 L61,515.030023 L65.7648515,515.030023 L65.7648515,545.515012 L80.740099,545.515012 L80.740099,515.030023 L90.269802,515.030023 L90.269802,504.190916 L80.740099,504.190916 L80.740099,502.768283 C80.740099,500.058507 82.1014851,498.771363 84.8242574,498.771363 C86.6621287,498.703618 88.5,499.04234 90.269802,499.65204 L90.269802,489.151655 C88.2277228,488.474211 85.164604,488 80.6039604,488 C75.5668317,488 72.2314356,489.083911 69.644802,491.658199 Z M96.3960396,545.515012 L111.371287,545.515012 L111.371287,503.513472 L96.3960396,503.513472 L96.3960396,545.515012 Z M95.7153465,499.448807 L111.371287,499.448807 L111.371287,488.6097 L95.7153465,488.6097 L95.7153465,499.448807 Z M138.530941,502.361817 C125.938119,502.361817 116.816832,512.184758 116.816832,524.514242 L116.816832,524.649731 C116.816832,537.792148 126.482673,546.666667 139.824257,546.666667 C148.332921,546.666667 154.32302,543.211701 158.407178,538.063125 L150.238861,531.220939 C147.175743,534.201694 144.384901,535.488838 140.845297,535.488838 C136.216584,535.488838 132.881188,533.253272 131.655941,528.511162 L160.108911,528.511162 C160.17698,527.833718 160.040842,526.411085 160.040842,525.462664 C160.108911,513.065435 153.233911,502.361817 138.530941,502.361817 Z M131.451733,521.127021 C132.268564,516.384911 134.923267,513.471901 138.871287,513.471901 C142.955446,513.471901 145.746287,516.384911 146.290842,521.127021 L131.451733,521.127021 L131.451733,521.127021 Z M164.465347,545.515012 L179.440594,545.515012 L179.440594,488.6097 L164.465347,488.6097 L164.465347,545.515012 Z M181.278465,502.971517 C181.278465,502.971517 183.933168,506.629715 187.200495,511.30408 C188.017327,509.949192 189.038366,508.662048 190.127475,507.510393 L181.278465,502.971517 Z M215.517327,508.458814 C212.794554,505.274827 208.982673,502.361817 202.516089,502.361817 C197.887376,502.361817 193.394802,504.190916 190.127475,507.510393 L212.181931,518.891455 L230.492574,545.6505 L230.492574,488.6097 L215.517327,488.6097 L215.517327,508.458814 L215.517327,508.458814 Z M187.064356,511.30408 C184.681931,515.301001 183.456683,519.839877 183.524752,524.514242 L183.524752,524.649731 C183.524752,538.198614 192.373762,546.598922 202.44802,546.598922 C208.846535,546.598922 212.113861,543.550423 215.517327,540.027714 L215.517327,545.515012 L230.628713,545.515012 L200.678218,530.949962 C200.950495,530.746728 192.850248,519.568899 187.064356,511.30408 Z M281.272277,503.513472 L264.391089,503.513472 L252.274752,517.468822 L252.274752,488.6097 L237.299505,488.6097 L237.299505,545.515012 L252.274752,545.515012 L252.274752,535.692071 L256.358911,531.153195 L265.207921,545.447267 L281.680693,545.447267 L266.501238,520.314088 L281.272277,503.513472 Z M284.267327,545.515012 L299.242574,545.515012 L299.242574,503.513472 L284.267327,503.513472 L284.267327,545.515012 Z M284.267327,499.448807 L299.923267,499.448807 L299.923267,488.6097 L284.267327,488.6097 L284.267327,499.448807 Z M336,515.707467 L336,503.513472 L325.789604,503.513472 L325.789604,492.674365 L310.814356,492.674365 L310.814356,503.513472 L306.049505,503.513472 L306.049505,515.707467 L310.814356,515.707467 L310.814356,532.508083 C310.814356,542.602002 316.39604,546.531178 325.381188,546.531178 C329.056931,546.598922 332.732673,545.785989 336,544.092379 L336,532.440339 C334.162129,533.321016 332.12005,533.795227 330.07797,533.862972 C327.355198,533.862972 325.789604,532.643572 325.789604,529.662818 L325.789604,515.707467 L336,515.707467 Z M206.736386,520.246343 C204.081683,520.178599 201.903465,522.34642 201.835396,524.988453 C201.767327,527.630485 203.945545,529.798306 206.600248,529.866051 C209.25495,529.933795 211.433168,527.765974 211.501238,525.123941 L211.501238,525.056197 C211.501238,522.414165 209.391089,520.314088 206.736386,520.246343 Z" id="Shape-Copy-7"></path>
        </g>
    </g>
</svg>