<?xml version="1.0" standalone="no"?>
<!DOCTYPE svg PUBLIC "-//W3C//DTD SVG 20010904//EN"
 "http://www.w3.org/TR/2001/REC-SVG-20010904/DTD/svg10.dtd">
<svg version="1.0" xmlns="http://www.w3.org/2000/svg"
 width="512.000000pt" height="511.000000pt" viewBox="0 0 512.000000 511.000000"
 preserveAspectRatio="xMidYMid meet">

<g transform="translate(0.000000,511.000000) scale(0.100000,-0.100000)"
fill="#000000" stroke="none">
<path d="M3543 5101 c-144 -23 -328 -105 -434 -193 -87 -72 -429 -408 -556
-547 -138 -150 -196 -265 -238 -465 -21 -103 -21 -291 -1 -379 39 -167 135
-264 239 -241 93 20 212 115 322 258 l55 72 0 85 c0 140 8 151 320 462 307
305 315 311 445 311 116 0 145 -16 321 -183 175 -165 407 -408 432 -454 25
-47 24 -217 -2 -272 -23 -47 -517 -547 -584 -590 -38 -25 -54 -29 -147 -33
l-105 -5 -142 -146 c-199 -203 -241 -289 -185 -372 26 -39 104 -81 197 -106
49 -14 102 -18 220 -17 169 0 232 12 370 66 146 58 222 119 541 437 287 287
345 355 404 471 63 125 105 298 105 435 0 158 -52 346 -134 486 -67 114 -461
523 -706 733 -68 59 -229 139 -335 167 -89 23 -311 34 -402 20z"/>
<path d="M1089 2735 c-175 -28 -219 -54 -434 -251 -117 -108 -343 -341 -421
-434 -252 -303 -304 -711 -132 -1055 58 -117 99 -167 333 -404 327 -333 429
-422 549 -481 56 -28 142 -62 191 -77 79 -23 107 -26 230 -26 204 0 369 44
521 138 87 55 292 243 502 461 250 259 300 329 364 514 33 94 33 97 33 275 0
165 -2 185 -23 238 -44 108 -99 150 -194 150 -42 -1 -75 -9 -120 -30 -74 -35
-200 -134 -256 -201 -39 -46 -40 -48 -44 -142 -3 -83 -8 -103 -32 -145 -37
-64 -516 -542 -581 -581 -41 -23 -63 -29 -136 -32 -144 -7 -153 -1 -474 321
-172 172 -278 287 -290 312 -21 45 -31 142 -21 209 10 62 40 102 216 287 186
196 363 359 416 384 28 14 64 20 129 21 l89 1 54 59 c145 159 194 302 134 384
-28 38 -78 68 -151 91 -85 28 -323 35 -452 14z"/>
</g>
</svg>
