<svg width="14" height="14" viewBox="0 0 14 14" xmlns="http://www.w3.org/2000/svg">
    <path d="M13.067 2.333a.934.934 0 0 1 .933.934V12.6a1.4 1.4 0 0 1-1.4 1.4H3.267a.934.934 0 0 1-.934-.933H12.6a.467.467 0 0 0 .467-.467zM10.733 0a1.4 1.4 0 0 1 1.4 1.4v9.333a1.4 1.4 0 0 1-1.4 1.4H1.4a1.4 1.4 0 0 1-1.4-1.4V1.4A1.4 1.4 0 0 1 1.4 0zm0 .933H1.4a.467.467 0 0 0-.467.467v7.275l2.94-2.935a.467.467 0 0 1 .658 0l2.002 2.002 2.002-2.007a.467.467 0 0 1 .663.005L11.2 7.742V1.4a.467.467 0 0 0-.467-.467zm-4.2 1.4a1.4 1.4 0 1 1 0 2.8 1.4 1.4 0 0 1 0-2.8zm0 .934a.467.467 0 1 0 0 .933.467.467 0 0 0 0-.933z" fill="#32465B" fill-rule="nonzero"/>
</svg>
