<?xml version="1.0" encoding="UTF-8"?>
<svg width="21px" height="21px" viewBox="0 0 21 21" version="1.1" xmlns="http://www.w3.org/2000/svg" xmlns:xlink="http://www.w3.org/1999/xlink">
    <!-- Generator: Sketch 64 (93537) - https://sketch.com -->
    <title>plus-round</title>
    <desc>Created with Sketch.</desc>
    <g id="Page-1" stroke="none" stroke-width="1" fill="none" fill-rule="evenodd">
        <g id="plus-round" fill="#2C3E50" fill-rule="nonzero">
            <path d="M10.5,0 C4.70101013,0 0,4.70101013 0,10.5 C0,16.2989899 4.70101013,21 10.5,21 C16.2989899,21 21,16.2989899 21,10.5 C21,4.70101013 16.2989899,0 10.5,0 Z M10.5,1.5 C15.4705627,1.5 19.5,5.52943725 19.5,10.5 C19.5,15.4705627 15.4705627,19.5 10.5,19.5 C5.52943725,19.5 1.5,15.4705627 1.5,10.5 C1.5,5.52943725 5.52943725,1.5 10.5,1.5 Z" id="Rectangle"></path>
            <g id="Group" stroke-linecap="round" transform="translate(6.000000, 6.000000)">
                <path d="M4.5,-0.75 C4.87969577,-0.75 5.19349096,-0.467846118 5.24315338,-0.101770557 L5.25,0 L5.25,9 C5.25,9.41421356 4.91421356,9.75 4.5,9.75 C4.12030423,9.75 3.80650904,9.46784612 3.75684662,9.10177056 L3.75,9 L3.75,0 C3.75,-0.414213562 4.08578644,-0.75 4.5,-0.75 Z" id="Path"></path>
                <path d="M4.5,-0.75 C4.87969577,-0.75 5.19349096,-0.467846118 5.24315338,-0.101770557 L5.25,0 L5.25,9 C5.25,9.41421356 4.91421356,9.75 4.5,9.75 C4.12030423,9.75 3.80650904,9.46784612 3.75684662,9.10177056 L3.75,9 L3.75,0 C3.75,-0.414213562 4.08578644,-0.75 4.5,-0.75 Z" id="Path" transform="translate(4.500000, 4.500000) rotate(90.000000) translate(-4.500000, -4.500000) "></path>
            </g>
        </g>
    </g>
</svg>