<?xml version="1.0" encoding="UTF-8" standalone="no"?><!DOCTYPE svg PUBLIC "-//W3C//DTD SVG 1.1//EN" "http://www.w3.org/Graphics/SVG/1.1/DTD/svg11.dtd"><svg width="100%" height="100%" viewBox="0 0 54 63" version="1.1" xmlns="http://www.w3.org/2000/svg" xmlns:xlink="http://www.w3.org/1999/xlink" xml:space="preserve" xmlns:serif="http://www.serif.com/" style="fill-rule:evenodd;clip-rule:evenodd;stroke-linejoin:round;stroke-miterlimit:2;"><path d="M37.061,8.428c-0.002,-0.067 -0.003,-0.135 -0.003,-0.203c0,-4.54 3.686,-8.225 8.225,-8.225c4.54,-0 8.225,3.685 8.225,8.225c0,4.54 -3.685,8.225 -8.225,8.225c-1.38,0 -2.682,-0.341 -3.825,-0.943l-25.01,15.54c0.001,0.067 0.002,0.135 0.002,0.203c0,0.068 -0.001,0.136 -0.002,0.203l25.01,15.54c1.143,-0.602 2.445,-0.943 3.825,-0.943c4.54,0 8.225,3.685 8.225,8.225c0,4.54 -3.685,8.225 -8.225,8.225c-4.539,0 -8.225,-3.685 -8.225,-8.225c0,-0.068 0.001,-0.136 0.003,-0.203l-25.011,-15.54c-1.143,0.602 -2.445,0.943 -3.825,0.943c-4.54,0 -8.225,-3.685 -8.225,-8.225c-0,-4.54 3.685,-8.225 8.225,-8.225c1.38,0 2.682,0.341 3.825,0.943l25.011,-15.54Z" style="fill:#fff;"/></svg>