<?xml version="1.0" encoding="UTF-8"?>
<svg width="14px" height="14px" viewBox="0 0 14 14" version="1.1" xmlns="http://www.w3.org/2000/svg" xmlns:xlink="http://www.w3.org/1999/xlink">
    <!-- Generator: Sketch 64 (93537) - https://sketch.com -->
    <title>Combined Shape Copy</title>
    <desc>Created with Sketch.</desc>
    <g id="Projects" stroke="none" stroke-width="1" fill="none" fill-rule="evenodd">
        <g id="06_Projects_UI_Desktop" transform="translate(-1085.000000, -325.000000)" fill="#1B80C9">
            <g id="Group-18-Copy" transform="translate(1085.000000, 321.000000)">
                <path d="M7,4 C10.8659932,4 14,7.13400675 14,11 C14,14.8659932 10.8659932,18 7,18 C3.13400675,18 0,14.8659932 0,11 C0,7.13400675 3.13400675,4 7,4 Z M5.92307692,7.83653846 L5.92307692,11.5769231 L5.92307692,11.5769231 C5.92307692,11.8530655 6.14693455,12.0769231 6.42307692,12.0769231 L10.7692308,12.0769231 L10.7692308,12.0769231 C11.5769231,12.0769231 11.5769231,11 10.7692308,11 C9.51282051,11 8.25641026,11 7,11 L7,9.30048077 C7,8.77323718 7,8.28525641 7,7.83653846 C7,7.02884615 5.92307692,7.02884615 5.92307692,7.83653846 Z" id="Combined-Shape-Copy"></path>
            </g>
        </g>
    </g>
</svg>