<svg height="22" viewBox="0 0 22 22" width="22" xmlns="http://www.w3.org/2000/svg"><g fill="none" fill-rule="evenodd"><circle cx="11" cy="11" fill="#4d8fd1" r="11"/><path d="m13.519 17h-4.039c-.266 0-.48-.277-.48-.618 0-.34.214-.618.48-.618l.773-.151v-4.137l-.773-.16c-.266 0-.48-.278-.48-.618s.214-.618.48-.618h3.135c.096 0 .127-.044.14-.08-.003.02-.008.04-.008.097v5.516l.772.151c.265 0 .481.278.481.618s-.216.618-.481.618zm-3.499-11.994h1.451c.01 0 .02-.006.03-.006s.019.006.03.006h1.451v1.402c.002.033.018.06.018.091 0 .033-.016.06-.018.091v1.4h-1.432c-.018.001-.033.01-.05.01s-.032-.009-.048-.01h-1.433v-1.401c-.003-.032-.019-.057-.019-.09 0-.031.016-.058.02-.09v-1.402z" fill="#fff"/></g></svg>