<svg width="22" height="22" viewBox="0 0 22 22" xmlns="http://www.w3.org/2000/svg">
    <g fill="none" fill-rule="evenodd">
        <circle fill="#4D8FD1" cx="11" cy="11" r="11"/>
        <path d="M13.519 17H9.48c-.266 0-.48-.277-.48-.618 0-.34.214-.618.48-.618l.773-.151v-4.137l-.773-.16c-.266 0-.48-.278-.48-.618 0-.34.214-.618.48-.618h3.135c.096 0 .127-.044.14-.08-.003.02-.008.04-.008.097v5.516l.772.151c.265 0 .481.278.481.618 0 .34-.216.618-.481.618zM10.02 5.006h1.451c.01 0 .02-.006.03-.006.01 0 .019.006.03.006h1.451v1.402c.002.033.018.06.018.091 0 .033-.016.06-.018.091v1.4H11.55c-.018.001-.033.01-.05.01s-.032-.009-.048-.01h-1.433V6.589c-.003-.032-.019-.057-.019-.09 0-.031.016-.058.02-.09V5.007z" fill="#FFF"/>
    </g>
</svg>
