<svg width="13" height="15" viewBox="0 0 13 15" xmlns="http://www.w3.org/2000/svg">
    <path d="M9.2 1.906a.268.268 0 0 0 .248.194h2.13a.7.7 0 0 1 .194 1.373l-.366 10.053A1.536 1.536 0 0 1 9.876 15H3.28c-.819 0-1.5-.657-1.53-1.474L1.383 3.473A.7.7 0 0 1 1.578 2.1h2.13a.27.27 0 0 0 .247-.194l.15-.6C4.29.567 5.013 0 5.776 0h1.601c.763 0 1.488.566 1.673 1.307l.15.599zM6.077 5.3v6.8a.5.5 0 0 0 1 0V5.3a.5.5 0 0 0-1 0zm-2.3.015.2 6.8a.5.5 0 1 0 1-.03l-.2-6.8a.5.5 0 0 0-1 .03zm4.6-.03-.2 6.8a.5.5 0 1 0 1 .03l.2-6.8a.5.5 0 1 0-1-.03zM5.449 2.1h2.258c.055 0 .089-.043.076-.096l-.09-.358c-.029-.117-.194-.246-.314-.246H5.777c-.12 0-.285.129-.315.246l-.089.358c-.014.054.02.096.075.096z" fill="#32465B" fill-rule="nonzero"/>
</svg>
