    <svg width="25px" height="14px" viewBox="0 0 25 14" version="1.1" xmlns="http://www.w3.org/2000/svg" xmlns:xlink="http://www.w3.org/1999/xlink">
        <g id="Page-1" stroke="none" stroke-width="1" fill="none" fill-rule="evenodd">
            <g id="01_SurveyStyleGuide" transform="translate(-929.000000, -1462.000000)" fill="#C42C44" fill-rule="nonzero">
                <g id="Icon_Battery_no_Battery" transform="translate(929.000000, 1462.000000)">
                    <path d="M22.7272727,3.40909091 C23.9824653,3.40909091 25,4.42662557 25,5.68181818 L25,7.95454545 C25,9.20973807 23.9824653,10.2272727 22.7272727,10.2272727 L22.7272727,11.3636364 C22.7272727,12.618829 21.7097381,13.6363636 20.4545455,13.6363636 L2.27272727,13.6363636 C1.01753466,13.6363636 0,12.618829 0,11.3636364 L0,2.27272727 C0,1.01753466 1.01753466,0 2.27272727,0 L20.4545455,0 C21.7097381,0 22.7272727,1.01753466 22.7272727,2.27272727 L22.7272727,3.40909091 Z M2.27272727,2.27272727 L2.27272727,11.3636364 L20.4545455,11.3636364 L20.4545455,2.27272727 L2.27272727,2.27272727 Z" id="Shape"></path>
                </g>
            </g>
        </g>
    </svg>
